<svg width="100" height="100" viewBox="0 0 100 100" fill="none" xmlns="http://www.w3.org/2000/svg">
<path d="M12.045 7.11284C8.77716 10.6603 6.20794 15.195 4.5163 19.9204C2.13761 26.5795 1.12147 33.7969 0.434421 40.9803C-1.79993 64.185 4.29691 90.9507 25.4396 98.0933C39.6251 102.88 55.0058 97.9775 67.9846 90.8826C87.0546 80.4582 113.93 48.007 91.4656 23.8763C79.3874 10.9054 59.8844 15.801 45.6065 8.74017C38.9207 5.43105 32.6218 -0.66291 24.995 0.0588324C20.0182 0.535455 15.6188 3.23177 12.045 7.11284Z" fill="#0CBBE2" fill-opacity="0.12"/>
<path d="M70.1664 40.1012L70.7814 40.6154C70.8959 40.7101 70.9854 40.8306 71.0423 40.9665C71.0992 41.1025 71.1218 41.2498 71.1081 41.3962L70.9846 42.7854C70.961 43.0586 70.8709 43.3222 70.7218 43.5541C70.5728 43.786 70.3691 43.9794 70.128 44.1181L69.8232 44.2931C68.7442 43.5097 68.1758 41.87 68.1758 41.87L67.9589 41.4231C67.9121 41.3328 67.8838 41.2343 67.8759 41.1333C67.8679 41.0323 67.8803 40.9307 67.9125 40.8344C67.9446 40.7381 67.9958 40.649 68.0632 40.5721C68.1305 40.4953 68.2126 40.4322 68.3049 40.3865L69.2027 39.9531C69.3609 39.8844 69.5359 39.8618 69.7068 39.8881C69.8777 39.9143 70.0372 39.9883 70.1664 40.1012Z" fill="#0CBBE2"/>
<path d="M67.7419 72.6865L67.2724 70.7265C66.0918 65.7861 67.5085 60.7945 68.8786 55.9698C70.0702 51.7805 71.1932 47.8255 70.3805 44.4358L71.0037 44.2932C71.8521 47.839 70.7072 51.8694 69.4936 56.1394C68.1455 60.8887 66.748 65.7995 67.8957 70.5838L68.3652 72.5438L67.7419 72.6865Z" fill="#0CBBE2"/>
<path d="M67.0669 44.1622C67.9299 33.5748 59.8769 24.306 49.0799 23.4597C38.283 22.6134 28.8308 30.5102 27.9678 41.0976C27.1048 51.685 35.1578 60.9539 45.9547 61.8001C56.7516 62.6464 66.2039 54.7496 67.0669 44.1622Z" fill="#0CBBE2"/>
<path opacity="0.2" d="M67.0669 44.1622C67.9299 33.5748 59.8769 24.306 49.0799 23.4597C38.283 22.6134 28.8308 30.5102 27.9678 41.0976C27.1048 51.685 35.1578 60.9539 45.9547 61.8001C56.7516 62.6464 66.2039 54.7496 67.0669 44.1622Z" fill="white"/>
<path d="M49.6429 58.2206C47.9161 58.2203 46.2244 57.7428 44.7617 56.8428C43.2991 55.9428 42.1247 54.6568 41.3732 53.1323C40.6218 51.6078 40.3238 49.9065 40.5133 48.2234C40.7028 46.5404 41.3721 44.9438 42.4446 43.6168C43.5172 42.2897 44.9494 41.2859 46.577 40.7205C48.2047 40.1551 49.9619 40.051 51.6471 40.4201C53.3324 40.7892 54.8774 41.6166 56.1051 42.8073C57.3327 43.9981 58.1933 45.504 58.5881 47.1524C58.9031 48.4746 58.9096 49.8494 58.607 51.1744C58.3044 52.4993 57.7006 53.7402 56.8406 54.8043C55.9806 55.8684 54.8866 56.7283 53.6403 57.3199C52.394 57.9114 51.0275 58.2193 49.6429 58.2206ZM49.6429 40.8254C47.8675 40.8254 46.1362 41.3673 44.6892 42.3759C43.2422 43.3845 42.1513 44.8098 41.5679 46.454C40.9844 48.0982 40.9374 49.8797 41.4333 51.5512C41.9292 53.2228 42.9434 54.7016 44.3352 55.7823C45.7271 56.863 47.4274 57.492 49.2004 57.5821C50.9733 57.6721 52.7309 57.2188 54.2292 56.2849C55.7275 55.3511 56.8921 53.983 57.5615 52.3706C58.2309 50.7582 58.3719 48.9815 57.9648 47.287C57.5208 45.4492 56.458 43.8118 54.948 42.6394C53.4379 41.4669 51.5689 40.8278 49.6429 40.8254Z" fill="white"/>
<path d="M48.1026 26.0445L54.8623 54.2952C55.0894 55.2422 55.6907 56.0621 56.5341 56.5745C57.3774 57.0869 58.3937 57.25 59.3596 57.0279L78.9743 52.5156C79.7564 52.3334 80.4582 51.91 80.9766 51.3076C81.4951 50.7052 81.8027 49.9556 81.8544 49.169C82.1161 45.2591 81.4793 41.3414 79.991 37.705C78.5028 34.0686 76.201 30.8062 73.2555 28.1584C70.31 25.5106 66.7959 23.545 62.9724 22.4065C59.1489 21.2681 55.1136 20.9858 51.164 21.5806C50.6553 21.6591 50.1687 21.8397 49.7344 22.1111C49.3002 22.3825 48.9278 22.7388 48.6404 23.1578C48.3531 23.5768 48.157 24.0494 48.0645 24.5462C47.9719 25.0429 47.9849 25.5529 48.1026 26.0445Z" fill="#0CBBE2"/>
<path opacity="0.4" d="M48.1026 26.0445L54.8623 54.2952C55.0894 55.2422 55.6907 56.0621 56.5341 56.5745C57.3774 57.0869 58.3937 57.25 59.3596 57.0279L78.9743 52.5156C79.7564 52.3334 80.4582 51.91 80.9766 51.3076C81.4951 50.7052 81.8027 49.9556 81.8544 49.169C82.1161 45.2591 81.4793 41.3414 79.991 37.705C78.5028 34.0686 76.201 30.8062 73.2555 28.1584C70.31 25.5106 66.7959 23.545 62.9724 22.4065C59.1489 21.2681 55.1136 20.9858 51.164 21.5806C50.6553 21.6591 50.1687 21.8397 49.7344 22.1111C49.3002 22.3825 48.9278 22.7388 48.6404 23.1578C48.3531 23.5768 48.157 24.0494 48.0645 24.5462C47.9719 25.0429 47.9849 25.5529 48.1026 26.0445Z" fill="white"/>
<path d="M64.1726 45.8762C63.6525 43.7133 62.2787 41.841 60.3526 40.67C58.4266 39.4991 56.1055 39.125 53.8986 39.63L53.7531 39.0215C56.125 38.4778 58.6199 38.8792 60.6903 40.1376C62.7607 41.396 64.2372 43.4086 64.7959 45.7335L64.1726 45.8762Z" fill="#0CBBE2"/>
<path opacity="0.2" d="M52.6686 24.5341L43.2236 27.703L43.0836 28.4676L43.8908 29.0115L43.7371 29.8461L44.4235 30.5326L44.418 31.2784L53.7503 28.1445L54.0249 27.3934L53.1985 26.7149L53.2808 25.8264L52.5642 25.3445L52.6686 24.5341Z" fill="white"/>
<path d="M62.0531 55.3613C59.7068 55.3586 57.4503 54.4764 55.7457 52.8954C54.0411 51.3144 53.0173 49.1542 52.884 46.8571C52.7507 44.5601 53.5179 42.2999 55.0285 40.5395C56.5392 38.779 58.679 37.6514 61.0098 37.3876C63.3406 37.1237 65.6861 37.7436 67.5661 39.1203C69.446 40.4969 70.7181 42.5262 71.122 44.7927C71.5259 47.0591 71.0309 49.3912 69.7385 51.3115C68.4461 53.2317 66.4539 54.5948 64.17 55.1217C63.4761 55.281 62.7658 55.3614 62.0531 55.3613ZM62.086 37.9635C60.7961 37.9631 59.5228 38.2484 58.361 38.7981C57.1992 39.3477 56.179 40.1476 55.3766 41.1379C54.5741 42.1282 54.0101 43.2835 53.7266 44.5175C53.4431 45.7514 53.4475 47.0323 53.7394 48.2643C53.9957 49.336 54.4648 50.3476 55.1199 51.2415C55.775 52.1354 56.6032 52.894 57.5572 53.474C58.5112 54.054 59.5724 54.4441 60.6802 54.6219C61.788 54.7998 62.9206 54.762 64.0135 54.5106C65.1063 54.2592 66.138 53.7992 67.0495 53.1568C67.9611 52.5145 68.7347 51.7024 69.3262 50.7668C69.9177 49.8313 70.3155 48.7907 70.4969 47.7044C70.6782 46.6182 70.6396 45.5075 70.3833 44.4358C69.9408 42.6002 68.8807 40.9643 67.3738 39.792C65.867 38.6197 64.0013 37.9793 62.0778 37.9742L62.086 37.9635Z" fill="#0CBBE2"/>
<path d="M59.0082 49.562L65.021 69.5338L41.9112 76.2269L35.0884 53.5655L49.6841 49.3386L59.0082 49.562Z" fill="#0CBBE2"/>
<path opacity="0.8" d="M59.0082 49.562L65.021 69.5338L41.9112 76.2269L35.0884 53.5655L49.6841 49.3386L59.0082 49.562Z" fill="white"/>
<path d="M59.0082 49.562L53.8355 52.9894L49.6841 49.3386L59.0082 49.562Z" fill="#0CBBE2"/>
<path d="M42.4824 54.1228C42.5966 54.5114 42.7569 54.8856 42.9601 55.2375C43.1722 55.5897 43.4226 55.9183 43.7069 56.2175C44.2808 56.8313 44.9809 57.386 45.6646 57.981C46.3639 58.5698 47.0268 59.1992 47.6496 59.8656C47.9626 60.2021 48.2592 60.5521 48.5475 60.9102C48.8357 61.2683 49.0966 61.6048 49.3876 61.9468C50.5161 63.3118 51.7543 64.6041 52.8663 66.0526C53.4317 66.7798 53.9349 67.5516 54.3709 68.3599C54.8068 69.177 55.1423 70.0419 55.3703 70.9365C55.402 71.0436 55.389 71.1586 55.3341 71.2563C55.2793 71.354 55.1871 71.4264 55.0779 71.4574C54.9687 71.4885 54.8513 71.4757 54.7517 71.422C54.6521 71.3682 54.5783 71.2778 54.5466 71.1707C53.9707 69.5459 53.1062 68.0337 51.9932 66.7041C50.895 65.3337 49.6951 64.0118 48.5667 62.5902C48.2921 62.2429 48.0038 61.8714 47.743 61.5321C47.4822 61.1929 47.1939 60.8591 46.8946 60.5387C46.2996 59.8957 45.6671 59.2871 45.0001 58.716C44.3329 58.129 43.6273 57.5663 42.9684 56.8717C42.6374 56.518 42.3456 56.1308 42.098 55.7167C41.8548 55.2917 41.664 54.8398 41.5297 54.3705C41.5038 54.2494 41.5256 54.1231 41.5908 54.017C41.656 53.911 41.7597 53.8331 41.8811 53.799C42.0025 53.7649 42.1325 53.7771 42.2451 53.8332C42.3577 53.8893 42.4444 53.9851 42.4879 54.1013L42.4824 54.1228Z" fill="#0CBBE2"/>
<path d="M64.5899 88.5928C63.7701 88.5922 62.967 88.365 62.2728 87.9374C61.5785 87.5098 61.0212 86.899 60.6647 86.1751C60.3082 85.4512 60.1669 84.6434 60.257 83.8443C60.3472 83.0453 60.6651 82.2873 61.1743 81.6573C61.6836 81.0272 62.3636 80.5507 63.1364 80.2822C63.9091 80.0137 64.7434 79.9642 65.5435 80.1393C66.3437 80.3143 67.0774 80.707 67.6604 81.2721C68.2435 81.8373 68.6523 82.5521 68.8401 83.3347C68.9888 83.9632 68.991 84.6165 68.8465 85.2459C68.702 85.8754 68.4145 86.4648 68.0054 86.9701C67.5964 87.4755 67.0764 87.8839 66.4841 88.1648C65.8917 88.4458 65.2424 88.5921 64.5844 88.5928H64.5899ZM64.6064 80.6585C64.3171 80.6588 64.0288 80.6913 63.747 80.7554C63.0296 80.9204 62.3782 81.2904 61.8751 81.8185C61.3721 82.3466 61.0401 83.0091 60.9211 83.7222C60.802 84.4353 60.9013 85.1671 61.2064 85.8249C61.5115 86.4826 62.0086 87.0369 62.635 87.4177C63.2613 87.7984 63.9887 87.9884 64.7252 87.9637C65.4617 87.939 66.1742 87.7007 66.7726 87.279C67.3709 86.8572 67.8283 86.2709 68.0869 85.5942C68.3454 84.9175 68.3935 84.1809 68.2251 83.4774C68.0331 82.6769 67.5715 81.9633 66.9149 81.4518C66.2582 80.9404 65.445 80.6609 64.6064 80.6585Z" fill="#0CBBE2"/>
<path d="M72.7142 77.3765L54.1786 81.6277C53.9541 81.6785 53.7186 81.6505 53.5129 81.5487C53.3073 81.4469 53.1445 81.2777 53.0528 81.0704L51.4055 77.3227C51.3492 77.1936 51.3224 77.0541 51.327 76.9138C51.3317 76.7735 51.3675 76.6359 51.4322 76.5107C51.4968 76.3855 51.5886 76.2757 51.7012 76.189C51.8137 76.1023 51.9443 76.0408 52.0836 76.0088L72.036 71.4157C72.1756 71.3841 72.3206 71.3828 72.4608 71.4119C72.6009 71.441 72.7329 71.4998 72.8475 71.5842C72.9621 71.6686 73.0564 71.7765 73.124 71.9004C73.1915 72.0243 73.2307 72.1612 73.2386 72.3015L73.4665 76.375C73.4814 76.6021 73.4141 76.827 73.2765 77.0102C73.1389 77.1934 72.9397 77.3231 72.7142 77.3765Z" fill="#003972"/>
<path d="M71.3689 80.3381L56.7265 83.7089C56.4979 83.7607 56.2578 83.7306 56.0498 83.6239C55.8419 83.5172 55.6797 83.3411 55.5926 83.1274L54.2665 79.8751C54.2141 79.7466 54.1907 79.6086 54.1978 79.4704C54.2048 79.3322 54.2422 79.1972 54.3074 79.0745C54.3725 78.9518 54.464 78.8444 54.5754 78.7595C54.6868 78.6746 54.8155 78.6143 54.9529 78.5827L70.6331 74.9535C70.7702 74.9216 70.9128 74.9192 71.051 74.9464C71.1892 74.9736 71.3197 75.0298 71.4337 75.1111C71.5477 75.1924 71.6423 75.2969 71.7113 75.4175C71.7802 75.5381 71.8217 75.6719 71.8329 75.8096L72.1239 79.3097C72.1467 79.5417 72.0826 79.774 71.9437 79.9632C71.8048 80.1524 71.6005 80.2857 71.3689 80.3381Z" fill="#003972"/>
<path d="M69.9192 83.087L59.2772 85.537C59.0435 85.5901 58.7981 85.5575 58.5872 85.4454C58.3763 85.3333 58.2145 85.1495 58.1323 84.9286L57.0834 82.1016C57.0359 81.9741 57.0166 81.8381 57.0267 81.7027C57.0367 81.5673 57.0761 81.4356 57.142 81.3162C57.2079 81.1968 57.299 81.0925 57.4091 81.0102C57.5192 80.928 57.6459 80.8696 57.7808 80.8389L69.1284 78.2274C69.2635 78.196 69.4037 78.1932 69.54 78.219C69.6762 78.2448 69.8053 78.2987 69.9187 78.3771C70.0322 78.4554 70.1273 78.5566 70.1979 78.6737C70.2685 78.7908 70.3129 78.9213 70.3283 79.0566L70.6687 82.0451C70.6965 82.2788 70.6353 82.5143 70.497 82.7065C70.3587 82.8988 70.153 83.0342 69.9192 83.087Z" fill="#003972"/>
<path d="M73.8154 99.6414C74.2307 99.7756 86.1163 99.7426 86.57 99.4601C86.7405 99.3566 86.8365 97.6569 86.8941 95.6018C86.9061 95.1593 86.9157 94.7026 86.9229 94.2341C86.9229 93.6833 86.9397 93.1254 86.9421 92.5863C86.9565 90.1522 86.9229 88.0076 86.9229 88.0076H79.1857V94.2365L79.2265 95.6042C79.2265 95.6042 74.682 97.6146 74.2187 97.9771C73.7554 98.3396 73.4001 99.5119 73.8154 99.6414Z" fill="#D8DAE5"/>
<path d="M73.8155 99.6412C74.2308 99.7754 86.1164 99.7425 86.5701 99.46C86.7405 99.3564 86.8366 97.6568 86.8942 95.6017C86.9062 95.1591 86.9158 94.7024 86.923 94.234C86.923 93.6831 86.9398 93.1252 86.9422 92.5861H79.1881V94.234L79.2289 95.6017C79.2289 95.6017 74.6845 97.612 74.2212 97.9746C73.7579 98.3371 73.4002 99.5118 73.8155 99.6412Z" fill="white"/>
<path d="M73.7794 99.6577C74.0507 99.7448 79.1137 99.7636 82.7986 99.6883C83.6509 99.6718 84.4311 99.6483 85.0601 99.62C85.9291 99.5824 86.5004 99.5353 86.6037 99.4764C86.8149 99.3446 86.9134 96.8517 86.9614 94.2222H79.1857L79.2265 95.5969C79.2265 95.5969 74.6653 97.6167 74.1851 97.9792C73.705 98.3418 73.3641 99.5117 73.7794 99.6577Z" fill="#003972"/>
<path d="M73.9499 99.1893C75.952 99.1351 84.0326 99.1022 86.0227 99.1893C86.0395 99.1893 86.0395 99.2011 86.0227 99.2011C84.0374 99.2976 75.952 99.267 73.9499 99.2011C73.9067 99.2199 73.9067 99.1893 73.9499 99.1893Z" fill="#003972"/>
<path d="M78.9407 95.1615C79.7281 95.0156 80.6932 95.1309 81.2982 95.6794C81.3222 95.7006 81.2982 95.7336 81.2646 95.7242C80.5107 95.4873 79.7333 95.3295 78.9455 95.2533C78.936 95.2502 78.9276 95.2443 78.9215 95.2364C78.9154 95.2285 78.9118 95.2189 78.9113 95.209C78.9108 95.1991 78.9133 95.1893 78.9186 95.1809C78.9238 95.1724 78.9315 95.1656 78.9407 95.1615Z" fill="#003972"/>
<path d="M78.3742 95.5099C79.1616 95.364 80.1267 95.4793 80.7293 96.0302C80.7533 96.0514 80.7293 96.082 80.6956 96.0749C79.9421 95.8369 79.1646 95.6791 78.3766 95.6041C78.3664 95.6012 78.3573 95.5951 78.3508 95.5868C78.3443 95.5785 78.3406 95.5684 78.3403 95.5579C78.3401 95.5474 78.3432 95.5371 78.3493 95.5285C78.3554 95.5199 78.3641 95.5134 78.3742 95.5099Z" fill="#003972"/>
<path d="M77.8101 95.8372C78.5975 95.6912 79.5626 95.8066 80.1676 96.3551C80.1892 96.3763 80.1676 96.4092 80.134 96.4022C79.3795 96.1643 78.6013 96.0064 77.8125 95.9314C77.8023 95.9284 77.7932 95.9224 77.7867 95.914C77.7802 95.9057 77.7765 95.8956 77.7763 95.8851C77.776 95.8747 77.7791 95.8644 77.7852 95.8557C77.7913 95.8471 77.8 95.8406 77.8101 95.8372Z" fill="#003972"/>
<path d="M77.2363 96.1738C78.0262 96.0279 78.9888 96.1432 79.5938 96.6941C79.6178 96.7153 79.5938 96.7459 79.5602 96.7388C78.8066 96.5008 78.0291 96.343 77.2411 96.268C77.2308 96.2653 77.2215 96.2595 77.2148 96.2513C77.208 96.2432 77.2041 96.2331 77.2036 96.2226C77.203 96.2121 77.2059 96.2017 77.2118 96.193C77.2177 96.1842 77.2263 96.1775 77.2363 96.1738Z" fill="#003972"/>
<path d="M89.5036 55.6745C89.5036 55.6745 87.4127 75.9547 87.3622 76.2066C87.3622 76.2396 87.3406 76.6304 87.3214 77.2683C87.2086 80.7594 87.0189 95.098 87.0189 95.098H78.4871C78.4871 95.098 78.9552 78.7514 79.2745 75.7429C79.6826 71.9058 82.2489 55.6698 82.2489 55.6698L89.5036 55.6745Z" fill="#0CBBE2"/>
<path d="M86.3444 76.927C86.6085 72.5327 87.0046 68.1487 87.5327 63.7748C87.8328 61.3101 88.1929 58.8549 88.5506 56.3972C88.5506 56.376 88.589 56.3784 88.5842 56.3972C87.924 60.7687 87.4559 65.1755 87.055 69.58C86.6541 73.9844 86.3708 78.3818 86.1859 82.791C86.0827 85.2886 86.0035 90.7783 85.9219 93.2783C85.9195 93.2887 85.9135 93.298 85.905 93.3046C85.8965 93.3113 85.8859 93.3149 85.8751 93.3149C85.8642 93.3149 85.8536 93.3113 85.8451 93.3046C85.8366 93.298 85.8307 93.2887 85.8282 93.2783C85.9483 88.8197 86.0779 81.3856 86.3444 76.927Z" fill="#003972"/>
<path d="M78.9359 93.7397C79.1665 93.7184 79.3981 93.709 79.6297 93.7114C79.8866 93.7114 80.1435 93.6996 80.3979 93.6902C80.8925 93.6714 81.387 93.6588 81.8815 93.6526C82.8786 93.6353 83.8749 93.6424 84.8703 93.6738L85.6913 93.702C85.9842 93.702 86.2771 93.7373 86.57 93.7373C86.5916 93.7373 86.5892 93.7632 86.57 93.7632C86.0682 93.7632 85.5617 93.8056 85.06 93.8221C84.5582 93.8385 84.0709 93.8479 83.5764 93.855C82.5825 93.8691 81.5838 93.855 80.5876 93.8244L79.7666 93.8032L79.3272 93.7844C79.1976 93.7844 79.068 93.7844 78.9383 93.7726C78.9339 93.7729 78.9295 93.7715 78.9261 93.7686C78.9227 93.7658 78.9206 93.7617 78.9203 93.7573C78.92 93.7529 78.9215 93.7486 78.9244 93.7453C78.9273 93.742 78.9315 93.74 78.9359 93.7397Z" fill="#003972"/>
<path d="M89.5036 55.6745C89.5036 55.6745 87.4127 75.9547 87.3623 76.2066C87.3623 76.2396 87.3407 76.6304 87.3215 77.2683L83.298 55.6698L89.5036 55.6745Z" fill="#003972"/>
<path d="M87.2231 99.6931C87.6528 99.7825 99.4664 98.4666 99.8817 98.1394C100.038 98.0146 99.9441 96.315 99.7689 94.2693C99.7329 93.8268 97.8484 86.7151 97.8484 86.7151L89.8854 87.5485L92.1492 95.0933C92.1492 95.0933 87.8569 97.5815 87.4392 97.9911C87.0214 98.4007 86.7958 99.6036 87.2231 99.6931Z" fill="#D8DAE5"/>
<path d="M99.8817 98.1394C99.464 98.4667 87.6528 99.7873 87.2231 99.6931C86.7934 99.599 87.0263 98.3984 87.444 97.9911C87.8617 97.5839 92.154 95.0933 92.154 95.0933L91.4146 92.6309L99.1087 91.5292C99.4472 92.8546 99.7569 94.0999 99.7689 94.267C99.9441 96.3174 100.038 98.0147 99.8817 98.1394Z" fill="white"/>
<path d="M87.1893 99.7141C87.4702 99.7706 92.502 99.2433 96.1582 98.7725C97.0032 98.6642 97.7762 98.5559 98.398 98.4617C99.2574 98.3299 99.8383 98.2263 99.9176 98.1534C100.074 98.0286 99.9992 96.2842 99.7687 94.2715C99.7054 93.8033 99.5993 93.3416 99.4518 92.892L91.7962 93.9043L92.1491 95.0813C92.1491 95.0813 87.8279 97.5813 87.4102 97.9933C86.9925 98.4052 86.762 99.6223 87.1893 99.7141Z" fill="#003972"/>
<path d="M87.307 99.2294C89.2923 98.9587 97.3249 98.0524 99.3102 97.937C99.327 97.937 99.327 97.937 99.3102 97.9488C97.3489 98.2595 89.3091 99.0976 87.307 99.26C87.2686 99.2765 87.2638 99.2341 87.307 99.2294Z" fill="#003972"/>
<path d="M91.8179 94.6859C92.5837 94.4505 93.556 94.467 94.2185 94.9472C94.245 94.9661 94.2185 95.0014 94.1921 94.9967C93.4164 94.8427 92.626 94.7717 91.8347 94.7848C91.8231 94.7838 91.8121 94.779 91.8035 94.7712C91.795 94.7634 91.7893 94.753 91.7873 94.7417C91.7854 94.7304 91.7874 94.7188 91.7929 94.7087C91.7984 94.6986 91.8072 94.6906 91.8179 94.6859Z" fill="#003972"/>
<path d="M91.2897 95.0839C92.0579 94.8485 93.0278 94.8649 93.6903 95.3452C93.7168 95.364 93.6904 95.3993 93.6615 95.3946C92.8858 95.2409 92.0955 95.169 91.3041 95.1804C91.2922 95.1802 91.2807 95.1758 91.2717 95.1681C91.2628 95.1603 91.2569 95.1497 91.2552 95.1381C91.2534 95.1265 91.256 95.1147 91.2623 95.1048C91.2686 95.0949 91.2783 95.0874 91.2897 95.0839Z" fill="#003972"/>
<path d="M90.7736 95.4818C91.5394 95.2464 92.5117 95.2628 93.1742 95.7431C93.1982 95.7619 93.1742 95.7972 93.1454 95.7925C92.3696 95.639 91.5793 95.5671 90.788 95.5783C90.7761 95.5781 90.7646 95.5737 90.7556 95.566C90.7467 95.5582 90.7408 95.5476 90.7391 95.536C90.7373 95.5244 90.7398 95.5126 90.7462 95.5027C90.7525 95.4927 90.7622 95.4853 90.7736 95.4818Z" fill="#003972"/>
<path d="M90.2357 95.8771C91.0039 95.6417 91.9738 95.6582 92.6364 96.1385C92.6628 96.1573 92.6364 96.1926 92.61 96.1879C91.8335 96.0338 91.0422 95.9628 90.2501 95.976C90.2387 95.9746 90.228 95.9695 90.2197 95.9615C90.2115 95.9536 90.2061 95.9432 90.2045 95.932C90.2029 95.9207 90.205 95.9093 90.2107 95.8994C90.2163 95.8895 90.2251 95.8817 90.2357 95.8771Z" fill="#003972"/>
<path d="M82.1456 55.5615C82.1456 55.5615 82.5177 57.739 83.7277 59.2267C84.0157 59.5822 84.904 59.9165 85.3625 60.2437C85.3625 60.2437 86.8845 76.1807 87.091 78.5277C87.3766 81.7457 91.1721 94.9567 91.1721 94.9567L99.9704 93.4783C99.9704 93.4783 96.295 79.9731 95.5388 76.8728C95.366 76.1666 93.9976 61.4702 94.0408 61.1571C94.5546 57.4094 92.7301 55.0812 92.7301 55.0812L82.1456 55.5615Z" fill="#0CBBE2"/>
<path d="M89.1579 55.9004C89.3306 56.4899 89.6979 57.0066 90.2022 57.3694C90.7576 57.7568 91.4154 57.9784 92.0963 58.0073C92.2116 58.0073 92.2212 58.1862 92.0963 58.1862C90.704 58.1862 89.2996 57.3223 89.0955 55.9099C89.0931 55.8769 89.1483 55.8698 89.1579 55.9004Z" fill="#003972"/>
<path d="M83.5716 59.1657C84.0772 59.3642 84.56 59.6143 85.012 59.912C85.4922 60.2015 85.9315 60.5428 86.3924 60.8536C86.4092 60.8536 86.3924 60.8936 86.3756 60.8818C85.8955 60.6088 85.3889 60.3734 84.9112 60.0909C84.4322 59.8348 83.9782 59.5361 83.5548 59.1987C83.5236 59.1893 83.5404 59.1587 83.5716 59.1657Z" fill="#003972"/>
<path d="M83.3652 56.3219C83.4396 56.6327 83.5332 56.9434 83.6172 57.2636C83.7013 57.5837 83.7565 57.8521 83.8573 58.1393C83.9342 58.4181 84.0918 58.6691 84.311 58.862C84.4335 58.9632 84.5679 59.0527 84.6975 59.1468C84.7672 59.1962 84.844 59.2433 84.916 59.2928C84.904 59.2527 84.8944 59.2104 84.8848 59.168L84.8056 58.8125C84.7479 58.5489 84.6927 58.2852 84.6399 58.0216C84.5343 57.5013 84.4335 56.9764 84.299 56.4632C84.298 56.4607 84.2976 56.458 84.2979 56.4553C84.2982 56.4526 84.2992 56.4501 84.3007 56.4478C84.3023 56.4456 84.3043 56.4438 84.3068 56.4425C84.3092 56.4412 84.3119 56.4406 84.3146 56.4406C84.3174 56.4406 84.3201 56.4412 84.3225 56.4425C84.3249 56.4438 84.327 56.4456 84.3285 56.4478C84.3301 56.4501 84.331 56.4526 84.3313 56.4553C84.3316 56.458 84.3313 56.4607 84.3302 56.4632C84.4887 56.9693 84.6591 57.4707 84.7984 57.9839C84.8656 58.2358 85.1272 59.4787 85.1417 59.5658C85.1561 59.6529 85.1657 59.7495 85.1729 59.8413C85.1896 59.9337 85.1944 60.0278 85.1873 60.1214C85.1853 60.1254 85.1822 60.1287 85.1784 60.1311C85.1746 60.1334 85.1702 60.1347 85.1657 60.1347C85.1612 60.1347 85.1567 60.1334 85.1529 60.1311C85.1491 60.1287 85.146 60.1254 85.144 60.1214C85.1019 60.036 85.0705 59.9459 85.0504 59.853C85.024 59.7659 84.9976 59.6741 84.9784 59.5847C84.9784 59.5517 84.964 59.5188 84.9592 59.4858C84.8296 59.4152 84.7071 59.3234 84.5847 59.2504C84.4623 59.1774 84.3206 59.0856 84.1958 58.9914C83.9697 58.8161 83.8024 58.5783 83.7157 58.3088C83.6239 58.017 83.5596 57.7175 83.5236 57.4142C83.466 57.0611 83.418 56.708 83.3508 56.3525C83.3316 56.3102 83.3604 56.3008 83.3652 56.3219Z" fill="#003972"/>
<path d="M91.549 93.3347C91.7626 93.2641 93.9496 92.8074 94.4297 92.7085C95.4044 92.5084 98.7629 91.9835 99.051 91.9293C99.0726 91.9293 99.0774 91.9505 99.051 91.9552C98.5588 92.0447 97.1064 92.3813 96.1294 92.5955C95.1523 92.8097 91.6858 93.3606 91.5562 93.3676C91.5321 93.37 91.5273 93.3418 91.549 93.3347Z" fill="#003972"/>
<path d="M95.9374 84.1798C95.3181 81.8257 94.6435 79.4717 94.2114 77.0705C93.9953 75.8653 93.8729 74.6482 93.7744 73.4288C93.676 72.2094 93.5776 70.9806 93.4816 69.7565C93.3855 68.5324 93.2847 67.3035 93.1743 66.0841C93.0639 64.8647 92.9606 63.6053 92.951 62.3624C92.9318 60.3449 93.3063 58.1557 92.4229 56.2559C92.3209 56.0398 92.203 55.8313 92.07 55.6321C92.0642 55.6245 92.0557 55.6193 92.0462 55.6175C92.0367 55.6158 92.0269 55.6176 92.0187 55.6227C92.0105 55.6277 92.0045 55.6356 92.002 55.6448C91.9995 55.654 92.0007 55.6637 92.0052 55.6721C93.0927 57.5153 92.8094 59.7376 92.7686 61.7738C92.7422 62.9791 92.8262 64.1797 92.9198 65.3803C93.0134 66.5808 93.1143 67.8355 93.2127 69.062C93.3111 70.2885 93.4119 71.5149 93.5104 72.7414C93.6088 73.9679 93.6976 75.1567 93.8681 76.3573C94.1994 78.7278 94.8619 81.0442 95.4741 83.3582C96.1055 85.7382 96.7296 88.1252 97.4306 90.484C97.5195 90.7806 97.6035 91.0772 97.6875 91.3715C97.6898 91.3759 97.6935 91.3794 97.6982 91.3814C97.7028 91.3834 97.7081 91.3837 97.7129 91.3823C97.7178 91.3809 97.722 91.3779 97.7248 91.3737C97.7276 91.3696 97.7289 91.3646 97.7283 91.3597C97.1586 88.9585 96.5616 86.5652 95.9374 84.1798Z" fill="#003972"/>
<path d="M83.5716 35.6603C84.2197 34.9752 85.312 34.8293 86.3659 35.0529C87.4198 35.2766 88.6729 35.8039 88.7666 37.4588C88.8386 38.8029 88.3705 40.1024 88.3513 41.6019C88.3321 43.1015 90.0725 46.7808 87.1509 48.504C84.5222 50.0459 79.2744 48.4616 79.1688 45.1636C79.0848 42.5506 82.4313 40.2201 82.7986 39.1866C83.1659 38.1532 82.8514 36.423 83.5716 35.6603Z" fill="#003972"/>
<path d="M83.0699 37.1291C83.0562 37.888 82.8846 38.6361 82.5658 39.3278C82.4774 39.5047 82.3643 39.6688 82.2297 39.8151C82.0977 39.9634 81.9608 40.1023 81.8216 40.2412C81.5431 40.5142 81.2671 40.7849 81.0078 41.0674C80.4804 41.6166 80.0402 42.2403 79.7018 42.9177C79.3774 43.5919 79.1922 44.3223 79.1569 45.067C79.1309 44.6919 79.1494 44.315 79.2121 43.9441C79.2817 43.5706 79.3911 43.2052 79.5386 42.8542C79.8539 42.1469 80.2908 41.4979 80.8301 40.9356C81.0966 40.6484 81.3799 40.3753 81.6608 40.1046C81.9503 39.8581 82.2011 39.5709 82.405 39.2525C82.5855 38.9263 82.7258 38.5801 82.8227 38.2214C82.9294 37.863 83.012 37.4981 83.0699 37.1291Z" fill="#003972"/>
<path d="M88.6682 38.5864C88.6346 39.3468 88.5698 40.1071 88.5794 40.8628C88.5813 41.24 88.6085 41.6167 88.661 41.9904C88.7139 42.36 88.8243 42.7296 88.9155 43.1015C89.0067 43.4735 89.0884 43.8548 89.1556 44.2362C89.2128 44.6187 89.2329 45.0057 89.2156 45.392C89.1934 45.7791 89.1125 46.1607 88.9755 46.5243C88.8133 46.8819 88.577 47.2026 88.2817 47.4659C88.5419 47.1791 88.7417 46.8447 88.8699 46.4819C88.984 46.1245 89.0438 45.7525 89.0475 45.3779C89.0284 44.6211 88.9156 43.8693 88.7115 43.1392C88.625 42.7649 88.5146 42.3953 88.4714 42.0045C88.4259 41.6225 88.4114 41.2376 88.4282 40.8534C88.4578 40.0934 88.538 39.3361 88.6682 38.5864Z" fill="#003972"/>
<path d="M86.2124 43.6123C85.8955 44.8835 82.1313 56.7951 81.3871 56.9552C79.1929 57.4401 76.557 57.7956 76.5858 56.03C76.6458 53.2593 81.956 45.9688 84.5079 43.5535C86.1764 41.948 86.5125 42.3576 86.2124 43.6123Z" fill="#D8DAE5"/>
<path d="M81.171 46.915L85.0793 47.8284C85.0793 47.8284 86.2004 44.1114 86.3828 43.1509C86.5653 42.1904 85.7971 42.2093 84.6159 43.3369C83.4348 44.4645 81.171 46.915 81.171 46.915Z" fill="#0CBBE2"/>
<path d="M81.7807 46.4771C81.7543 46.4771 81.7423 46.4771 81.7687 46.4959C82.9078 46.7927 84.0648 47.0192 85.2328 47.1739C85.2328 47.1739 85.2328 47.1739 85.2328 47.1598C84.6831 46.9785 82.0784 46.5454 81.7807 46.4771Z" fill="#003972"/>
<path d="M82.4818 51.4396L81.7616 57.3248C81.7616 57.3248 91.489 57.24 93.8993 57.0164C93.8993 57.0164 91.6667 46.1241 89.0043 43.4193C87.672 42.0681 86.15 42.207 85.2017 43.1957C84.9617 43.4452 82.1217 47.3153 81.8408 48.7748C81.6032 50.0507 82.4818 51.4396 82.4818 51.4396Z" fill="#0CBBE2"/>
<path d="M81.7544 57.3106L82.4746 51.4396C82.4746 51.4396 81.596 50.0507 81.8336 48.763C82.1073 47.3035 84.9545 43.4334 85.1945 43.1839C85.2826 43.0903 85.3782 43.0037 85.4802 42.9249L84.2367 46.4395L87.9313 42.6472C88.3382 42.8223 88.7012 43.0827 88.9947 43.4099C91.6595 46.1123 93.8945 57.0046 93.8945 57.0046C91.4938 57.2282 81.7544 57.3106 81.7544 57.3106Z" fill="#003972"/>
<path d="M93.1479 53.8266L82.1433 54.1586L82.2585 53.2169L92.9102 52.9015C92.9942 53.2216 93.0735 53.53 93.1479 53.8266Z" fill="#0CBBE2"/>
<path d="M93.5463 55.451L81.9392 55.8017L82.0568 54.8601L93.3231 54.5211C93.4143 54.8625 93.4815 55.1732 93.5463 55.451Z" fill="#0CBBE2"/>
<path d="M87.4342 43.0143C87.3766 43.1979 86.3827 44.3514 85.5137 44.2549C85.2304 44.222 85.3409 42.6989 85.3409 42.6989L85.324 42.5835L85.084 40.9851L87.0525 39.9234L87.3358 39.7845C87.3358 39.7845 87.3742 40.2271 87.4174 40.778C87.4174 40.8015 87.4174 40.8274 87.4174 40.8556C87.4174 40.8862 87.4174 40.9169 87.4174 40.9451C87.4174 41.0275 87.4342 41.1122 87.439 41.1946C87.4438 41.277 87.439 41.3217 87.451 41.3877C87.463 41.4536 87.451 41.5195 87.451 41.5878C87.479 42.0631 87.4734 42.5397 87.4342 43.0143Z" fill="#D8DAE5"/>
<path d="M87.4127 40.7827C87.2202 41.2142 86.9341 41.5993 86.5742 41.9112C86.2143 42.223 85.7893 42.4541 85.3289 42.5883L85.0889 40.9899L87.0574 39.9282L87.3407 39.7893C87.3407 39.7893 87.3647 40.2319 87.4127 40.7827Z" fill="#003972"/>
<path d="M82.7818 38.3063C82.2465 41.0982 83.8909 41.7268 84.5055 41.8374C85.0624 41.9386 86.9733 42.2164 87.7992 39.4833C88.625 36.7503 87.4703 35.6345 86.2075 35.3355C84.9448 35.0365 83.3148 35.5191 82.7818 38.3063Z" fill="#D8DAE5"/>
<path d="M83.5381 37.6142C83.6041 37.6228 83.6707 37.6267 83.7373 37.6259C83.8074 37.6394 83.8801 37.6295 83.9438 37.5977C83.9617 37.5844 83.9747 37.5656 83.9808 37.5444C83.9868 37.5231 83.9857 37.5005 83.9774 37.48C83.9538 37.4418 83.9202 37.4105 83.8801 37.3894C83.84 37.3683 83.7948 37.3581 83.7493 37.3599C83.6567 37.3478 83.5629 37.3714 83.4877 37.4258C83.471 37.4386 83.4585 37.4558 83.4517 37.4755C83.445 37.4951 83.4442 37.5163 83.4496 37.5363C83.455 37.5563 83.4662 37.5744 83.4819 37.5883C83.4977 37.6021 83.5172 37.6111 83.5381 37.6142Z" fill="#003972"/>
<path d="M85.4922 38.0214C85.4273 38.0025 85.3697 37.9743 85.3073 37.9507C85.2383 37.9346 85.1767 37.8965 85.1321 37.8424C85.1206 37.823 85.1162 37.8002 85.1197 37.7779C85.1232 37.7557 85.1343 37.7352 85.1513 37.72C85.1891 37.6949 85.2331 37.6802 85.2786 37.6773C85.3242 37.6744 85.3697 37.6835 85.4105 37.7036C85.4985 37.7313 85.5729 37.79 85.6194 37.8683C85.6289 37.887 85.6327 37.9079 85.6304 37.9287C85.628 37.9494 85.6196 37.969 85.6062 37.9852C85.5928 38.0013 85.5748 38.0133 85.5546 38.0197C85.5344 38.0262 85.5127 38.0267 85.4922 38.0214Z" fill="#003972"/>
<path d="M84.9304 38.6663C84.9304 38.6663 84.9448 38.6781 84.9304 38.6852C84.8872 38.8735 84.8704 39.0971 85.0336 39.1936C84.8344 39.1348 84.8584 38.8382 84.9304 38.6663Z" fill="#003972"/>
<path d="M85.1416 38.4993C85.4585 38.5346 85.3649 39.1514 85.072 39.1208C84.7791 39.0902 84.8776 38.471 85.1416 38.4993Z" fill="#003972"/>
<path d="M85.252 38.5417C85.3 38.5841 85.3457 38.6547 85.4105 38.6712C85.4753 38.6876 85.5545 38.6335 85.6145 38.5794C85.5977 38.6994 85.5329 38.8148 85.4009 38.8148C85.2688 38.8148 85.2112 38.6947 85.1992 38.5794C85.216 38.5629 85.252 38.5417 85.252 38.5417Z" fill="#003972"/>
<path d="M83.8117 38.4545C83.8117 38.4545 83.7949 38.4545 83.7949 38.4709C83.7733 38.6616 83.7157 38.8782 83.5284 38.9182V38.93C83.7469 38.93 83.8117 38.6404 83.8117 38.4545Z" fill="#003972"/>
<path d="M83.6653 38.2308C83.3532 38.1649 83.2404 38.7793 83.5285 38.8405C83.8165 38.9017 83.9246 38.2873 83.6653 38.2308Z" fill="#003972"/>
<path d="M83.5261 38.2473C83.4709 38.2709 83.4109 38.3226 83.3508 38.3156C83.2908 38.3085 83.2428 38.2332 83.2116 38.1602C83.2116 38.1602 83.2116 38.1602 83.1996 38.1602C83.1756 38.2779 83.1996 38.3956 83.3028 38.4498C83.4061 38.5039 83.4997 38.4027 83.5429 38.2897C83.5717 38.2756 83.5477 38.2379 83.5261 38.2473Z" fill="#003972"/>
<path d="M84.6903 40.2225C84.6447 40.2695 84.5991 40.3331 84.5295 40.3425C84.4562 40.3436 84.3835 40.33 84.3158 40.3025C84.3014 40.3025 84.3158 40.3025 84.3158 40.3025C84.3452 40.3398 84.3845 40.3683 84.4295 40.3849C84.4744 40.4016 84.5232 40.4056 84.5703 40.3967C84.6102 40.3851 84.6457 40.3622 84.6723 40.3307C84.6988 40.2992 84.7151 40.2607 84.7192 40.2201C84.7192 40.2201 84.6976 40.2154 84.6903 40.2225Z" fill="#003972"/>
<path d="M83.9318 39.3701C83.9318 39.3701 83.8453 39.6479 83.8213 39.7844C83.8213 39.7962 83.8525 39.808 83.8982 39.8174C84.0122 39.8573 84.1352 39.8656 84.2538 39.8415C84.3723 39.8175 84.4818 39.7619 84.5703 39.6809C84.5823 39.6691 84.5703 39.6526 84.5535 39.6573C84.3597 39.7467 84.1416 39.7723 83.9318 39.7303C83.9318 39.6926 84.0974 39.2595 84.0758 39.2595C83.9673 39.253 83.8584 39.2602 83.7517 39.2807C83.9174 38.6945 84.1766 38.139 84.3303 37.5528C84.3303 37.534 84.3063 37.5222 84.2967 37.5387C83.9997 38.1251 83.764 38.7395 83.5933 39.3725C83.5717 39.4407 83.8717 39.3843 83.9318 39.3701Z" fill="#003972"/>
<path d="M83.9221 39.7987C83.9859 39.9196 84.0801 40.0225 84.1958 40.0977C84.2598 40.1364 84.3345 40.1545 84.4094 40.1495C84.5751 40.1377 84.6063 39.9965 84.5991 39.8717C84.5951 39.8046 84.583 39.7382 84.5631 39.674C84.3681 39.7806 84.1438 39.8243 83.9221 39.7987Z" fill="#003972"/>
<path d="M84.1958 40.0978C84.2598 40.1365 84.3345 40.1546 84.4095 40.1496C84.5751 40.1378 84.6063 39.9966 84.5991 39.8718C84.5158 39.8595 84.4306 39.8751 84.3574 39.9161C84.2842 39.9571 84.2273 40.0211 84.1958 40.0978Z" fill="#003972"/>
<path d="M87.3046 39.6292C87.3046 39.6292 88.0248 38.81 88.4089 39.0689C88.793 39.3279 88.1928 40.5614 87.6887 40.6885C87.6262 40.7106 87.5598 40.7198 87.4935 40.7154C87.4273 40.7111 87.3627 40.6933 87.3038 40.6632C87.2449 40.6331 87.193 40.5914 87.1514 40.5406C87.1098 40.4899 87.0794 40.4312 87.0621 40.3683L87.3046 39.6292Z" fill="#D8DAE5"/>
<path d="M88.2288 39.4174C88.2288 39.4174 88.2288 39.4292 88.2288 39.4316C88.0661 39.4912 87.918 39.5836 87.794 39.7028C87.6699 39.822 87.5727 39.9654 87.5086 40.1236C87.5318 40.0929 87.5615 40.0674 87.5956 40.0488C87.6296 40.0302 87.6674 40.019 87.7063 40.0158C87.7451 40.0127 87.7842 40.0178 87.821 40.0307C87.8577 40.0436 87.8911 40.0641 87.9191 40.0907C87.9191 40.0907 87.9191 40.1119 87.9071 40.1095C87.8505 40.085 87.7874 40.0783 87.7268 40.0906C87.6661 40.1028 87.6108 40.1333 87.5686 40.1778C87.4981 40.2534 87.4361 40.3362 87.3838 40.425C87.3646 40.4532 87.3118 40.425 87.3262 40.3991C87.3718 39.9706 87.7631 39.4151 88.2288 39.4174Z" fill="#003972"/>
<path d="M87.6888 39.3986C87.3815 39.335 86.6973 38.3863 86.8845 36.9127C86.8845 36.9127 86.8077 38.2474 86.8845 38.4546C86.9614 38.6617 86.5004 37.9202 86.6445 36.7314C86.2247 36.9448 85.7761 37.0986 85.3121 37.1881C84.7192 37.2634 84.3711 37.2093 84.3375 37.1646C84.3039 37.1198 85.1777 36.9762 85.4442 36.7526C85.4442 36.7526 83.8261 37.2234 83.1179 37.1858C83.0363 37.1858 83.178 35.5379 84.3591 34.9941C85.5402 34.4503 87.1462 35.4414 87.5423 35.9357C87.5423 35.9357 88.0729 36.0888 88.5458 36.9551C89.0187 37.8213 88.0201 39.4645 87.6888 39.3986Z" fill="#003972"/>
<path d="M83.0747 36.4466C83.0747 36.4466 84.1238 33.4028 86.8989 34.2973C89.6741 35.1919 88.6754 38.2545 88.6754 38.2545L83.0747 36.4466Z" fill="#0CBBE2"/>
<path d="M88.9626 38.0993L82.9446 36.158L82.7998 36.5895L88.8178 38.5309L88.9626 38.0993Z" fill="#0CBBE2"/>
<path d="M85.9027 37.1199L84.652 36.715L85.9507 33.8171L87.2039 34.222L85.9027 37.1199Z" fill="#0CBBE2"/>
<path d="M76.3501 42.382L78.6493 41.4583C79.087 41.2824 79.5781 41.2843 80.0144 41.4634C80.4508 41.6426 80.7967 41.9844 80.976 42.4137L86.9549 56.723L81.3658 58.9685L75.386 44.657C75.2082 44.2298 75.2097 43.751 75.3903 43.3249C75.5709 42.8987 75.9159 42.5599 76.3501 42.382Z" fill="#0CBBE2"/>
<path d="M86.0409 57.0858L82.2667 58.6022L82.8802 60.0704L86.6544 58.554L86.0409 57.0858Z" fill="#0CBBE2"/>
<path opacity="0.6" d="M86.0409 57.0858L82.2667 58.6022L82.8802 60.0704L86.6544 58.554L86.0409 57.0858Z" fill="white"/>
<path d="M85.3682 59.0744L84.1709 59.5555L90.7732 75.3569L91.9706 74.8759L85.3682 59.0744Z" fill="#0CBBE2"/>
<path d="M93.155 76.0277C93.155 76.0277 93.4359 78.7538 93.3567 78.7844L92.9582 78.9444L92.5621 79.1045C92.4829 79.1351 90.7328 77 90.7328 77L90.7736 75.3663L91.9739 74.8954L93.155 76.0277Z" fill="#0CBBE2"/>
<path opacity="0.6" d="M76.3501 42.382L78.6493 41.4583C79.087 41.2824 79.5781 41.2843 80.0144 41.4634C80.4508 41.6426 80.7967 41.9844 80.976 42.4137L86.9549 56.723L81.3658 58.9685L75.386 44.657C75.2082 44.2298 75.2097 43.751 75.3903 43.3249C75.5709 42.8987 75.9159 42.5599 76.3501 42.382Z" fill="white"/>
<path opacity="0.6" d="M85.3682 59.0744L84.1709 59.5555L90.7732 75.3569L91.9706 74.8759L85.3682 59.0744Z" fill="white"/>
<path opacity="0.6" d="M93.155 76.0277C93.155 76.0277 93.4359 78.7538 93.3567 78.7844L92.9582 78.9444L92.5621 79.1045C92.4829 79.1351 90.7328 77 90.7328 77L90.7736 75.3663L91.9739 74.8954L93.155 76.0277Z" fill="white"/>
<path d="M77.073 44.5036L76.0956 44.8963L81.2389 57.2059L82.2163 56.8132L77.073 44.5036Z" fill="#0CBBE2"/>
<path d="M78.8901 43.7742L77.9127 44.1669L83.0561 56.4765L84.0335 56.0838L78.8901 43.7742Z" fill="#0CBBE2"/>
<path d="M80.7026 43.048L79.7252 43.4407L84.8686 55.7504L85.846 55.3577L80.7026 43.048Z" fill="#0CBBE2"/>
<path d="M84.8031 50.2484C84.9082 50.355 84.9778 50.4905 85.0027 50.6368C85.0275 50.7831 85.0065 50.9333 84.9424 51.0676C85.1935 51.1176 85.4187 51.2526 85.5785 51.449C85.845 51.8091 85.3865 52.3765 85.3865 52.3765C85.6364 52.4823 85.848 52.6595 85.9938 52.8849C86.2123 53.2545 85.8306 53.8901 85.8306 53.8901C86.0034 54.1123 86.0886 54.3881 86.0707 54.667C85.9962 55.4132 84.9544 55.924 84.2942 56.2536C83.634 56.5832 81.4446 56.9174 81.0341 57.0234L78.8303 52.8873C78.8303 52.8873 81.3606 50.578 82.1912 50.2978C82.9018 50.0601 84.383 49.8576 84.8031 50.2484Z" fill="#D8DAE5"/>
<path d="M79.1377 52.619C78.3814 53.1863 76.1176 55.3779 76.6482 56.4937C77.1787 57.6096 79.0032 57.4942 81.5311 56.9245L79.1377 52.619Z" fill="#D8DAE5"/>
<path d="M84.8776 51.0181C84.071 51.0934 83.3292 51.3994 82.573 51.6654C82.5562 51.6654 82.573 51.696 82.573 51.6913C83.322 51.4183 84.1166 51.2958 84.8752 51.0534C84.879 51.0523 84.8824 51.0501 84.8848 51.0471C84.8873 51.0441 84.8888 51.0404 84.889 51.0365C84.8893 51.0327 84.8884 51.0289 84.8863 51.0255C84.8843 51.0222 84.8812 51.0196 84.8776 51.0181Z" fill="#003972"/>
<path d="M85.3433 52.3292C85.1617 52.363 84.9856 52.4208 84.82 52.5011C84.6375 52.5741 84.4599 52.6518 84.2798 52.7365C83.9245 52.8966 83.5596 53.0637 83.2211 53.2403C83.2067 53.2403 83.2211 53.2732 83.2211 53.2662C83.5788 53.1084 83.9413 52.9554 84.299 52.8118L84.8464 52.6023C85.0225 52.5477 85.1922 52.4751 85.3529 52.3857C85.3605 52.3845 85.3674 52.3803 85.3719 52.3741C85.3764 52.368 85.3782 52.3603 85.3769 52.3528C85.3756 52.3453 85.3714 52.3386 85.3651 52.3342C85.3588 52.3298 85.3509 52.328 85.3433 52.3292Z" fill="#003972"/>
<path d="M85.8163 53.8971C85.6528 53.9311 85.4962 53.9916 85.353 54.076L84.8728 54.3114C84.5488 54.4574 84.2247 54.6057 83.8958 54.7422C83.879 54.7422 83.8958 54.7752 83.8958 54.7681C84.2319 54.6316 84.568 54.4974 84.9016 54.3585L85.3818 54.149C85.5382 54.0963 85.6838 54.0166 85.8115 53.9136C85.8115 53.9136 85.8235 53.8971 85.8163 53.8971Z" fill="#003972"/>
<path d="M79.0393 52.666C78.774 52.857 78.5229 53.0663 78.2879 53.2921L78.1102 53.471L78.0334 53.5205C77.9278 53.5888 77.8222 53.6617 77.7213 53.7394C77.5287 53.8938 77.3459 54.0597 77.174 54.2361C77.162 54.2502 77.174 54.2691 77.1932 54.2549C77.3758 54.0844 77.5708 53.9271 77.7765 53.7841L77.8582 53.73C77.7597 53.8383 77.6637 53.9466 77.5749 54.0619C77.3353 54.3622 77.1148 54.6766 76.9147 55.0035C76.9138 55.0066 76.9139 55.0098 76.915 55.0128C76.9162 55.0157 76.9183 55.0182 76.9211 55.0199C76.9238 55.0215 76.9271 55.0222 76.9303 55.0218C76.9335 55.0214 76.9365 55.0199 76.9387 55.0177C77.306 54.4386 78.9121 52.8872 79.0873 52.7013C79.2625 52.5153 79.1713 52.5506 79.0393 52.666Z" fill="#003972"/>
<path d="M89.4557 43.5275C92.1876 45.9898 94.5163 50.7639 94.5211 51.9385C94.5211 53.424 92.0652 60.5568 90.8289 61.8256C90.3487 62.3129 86.1236 58.8712 86.6373 58.3534C87.5112 57.4753 89.9478 51.762 89.9694 51.3547C89.9862 51.1028 88.7379 47.1975 87.9169 45.0364C86.7862 42.0727 88.6275 42.7789 89.4557 43.5275Z" fill="#D8DAE5"/>
<path d="M82.172 64.3892C82.4139 64.5656 82.7113 64.653 83.0123 64.6364C83.0079 64.9271 83.1073 65.2102 83.2931 65.4368C83.6388 65.8205 84.4022 65.4556 84.4022 65.4556C84.4615 65.758 84.612 66.0361 84.8344 66.2536C85.2041 66.5879 86.0347 66.3266 86.0347 66.3266C86.2444 66.5757 86.5382 66.7428 86.8629 66.7974C87.7367 66.9033 88.5866 65.877 89.1315 65.232C89.6764 64.5869 90.6103 62.2517 90.8336 61.8256L86.642 58.3534C86.642 58.3534 83.3556 60.5686 82.825 61.4137C82.3713 62.1293 81.6103 63.9655 82.172 64.3892Z" fill="#D8DAE5"/>
<path d="M83.0051 64.6152C83.3303 63.7513 83.7624 62.9299 84.2918 62.1693C84.3038 62.1528 84.3302 62.1693 84.3182 62.1858C83.8189 62.9461 83.514 63.8548 83.0459 64.6316C83.0437 64.637 83.0394 64.6412 83.034 64.6434C83.0286 64.6456 83.0225 64.6456 83.0171 64.6434C83.0117 64.6412 83.0074 64.637 83.0051 64.6317C83.0029 64.6264 83.0029 64.6205 83.0051 64.6152Z" fill="#003972"/>
<path d="M84.359 65.3969C84.4447 65.2044 84.5561 65.0239 84.6903 64.8602C84.82 64.6789 84.952 64.5 85.0888 64.3235C85.3593 63.9688 85.6402 63.6204 85.9314 63.2783C85.9435 63.2641 85.9699 63.2783 85.9579 63.2971C85.6874 63.6502 85.4241 64.0088 85.168 64.3729C85.0384 64.5565 84.9136 64.7401 84.7887 64.9238C84.6829 65.1058 84.5565 65.2756 84.4118 65.4299C84.4064 65.4338 84.3999 65.436 84.3931 65.4362C84.3863 65.4364 84.3797 65.4346 84.374 65.4311C84.3683 65.4275 84.3638 65.4223 84.3611 65.4163C84.3585 65.4102 84.3577 65.4034 84.359 65.3969Z" fill="#003972"/>
<path d="M86.0396 66.3196C86.119 66.1455 86.2286 65.9862 86.3636 65.8488L86.7429 65.378C86.983 65.0578 87.2447 64.7353 87.4847 64.4058C87.4967 64.3893 87.5231 64.4058 87.5111 64.4246C87.2711 64.7589 87.031 65.0979 86.791 65.4321C86.6709 65.5969 86.5509 65.7593 86.4261 65.9218C86.3302 66.0805 86.2057 66.2209 86.0588 66.3361L86.0396 66.3196Z" fill="#003972"/>
<path d="M89.0259 48.4757L92.867 46.7996C92.867 46.7996 90.7736 44.1654 89.1532 43.2261C87.5327 42.2869 87.3143 43.1602 87.6408 44.4762C87.9673 45.7921 89.0259 48.4757 89.0259 48.4757Z" fill="#0CBBE2"/>
<path d="M89.0331 47.7224C89.0091 47.7342 89.0067 47.7553 89.0331 47.7459C90.1354 47.3401 91.2113 46.8684 92.2547 46.3335C92.2547 46.3194 92.2547 46.3335 92.2547 46.3335C91.693 46.4747 89.314 47.6023 89.0331 47.7224Z" fill="#003972"/>
<path d="M87.9193 45.4956C88.2602 46.5055 88.6395 47.5554 89.0116 48.5324C89.0116 48.5488 89.17 48.45 89.2348 48.4147C89.2588 48.4005 89.2348 48.3794 89.2108 48.3911C89.1638 48.4117 89.1147 48.4275 89.0644 48.4382C88.6971 47.4519 88.3298 46.4655 87.9313 45.4909C87.9289 45.4839 87.9169 45.4886 87.9193 45.4956Z" fill="#003972"/>
<path d="M38.1848 4.73478C38.6513 4.21344 39.188 3.75385 39.7809 3.36807L39.5553 1.47712L42.656 0.434753L43.7094 2.04828C44.4244 1.99415 45.1437 2.03188 45.8482 2.16047L47.0825 0.671378L50.0428 2.03604L49.6001 3.89028C50.144 4.33744 50.6235 4.85191 51.026 5.42017L52.9987 5.20395L54.0862 8.17602L52.4029 9.18575C52.4593 9.87105 52.42 10.5605 52.2858 11.2358L53.8394 12.4189L52.4241 15.2564L50.4812 14.828C50.0146 15.3493 49.4779 15.8089 48.8851 16.1947L49.1106 18.0857L46.0099 19.128L44.9565 17.5145C44.2416 17.5686 43.5223 17.5309 42.8177 17.4023L41.5834 18.8914L38.6232 17.5267L39.0658 15.6725C38.5219 15.2253 38.0424 14.7109 37.64 14.1426L35.6672 14.3588L34.5797 11.3868L36.2631 10.377C36.2066 9.69173 36.246 9.00227 36.3801 8.32697L34.8266 7.14385L36.2503 4.31049L38.1848 4.73478ZM40.3385 7.94143C39.9581 8.69876 39.8206 9.5472 39.9434 10.3794C40.0662 11.2117 40.4437 11.9903 41.0283 12.6168C41.6128 13.2434 42.378 13.6896 43.2272 13.8992C44.0764 14.1088 44.9713 14.0723 45.7989 13.7943C46.6264 13.5163 47.3493 13.0093 47.8762 12.3374C48.4031 11.6656 48.7102 10.859 48.7588 10.0198C48.8073 9.18056 48.5951 8.34639 48.149 7.62278C47.7029 6.89917 47.0429 6.31864 46.2525 5.95461C45.1933 5.46734 43.9755 5.40287 42.8667 5.77538C41.7579 6.14788 40.8486 6.92691 40.3385 7.94143Z" fill="#003972"/>
<path d="M38.6281 4.30002C39.0947 3.77868 39.6314 3.3191 40.2242 2.93332L39.9987 1.04237L43.0994 0L44.1528 1.61353C44.8677 1.5594 45.587 1.59713 46.2916 1.72572L47.5259 0.236624L50.4861 1.60129L50.0435 3.45552C50.5874 3.90269 51.0668 4.41715 51.4693 4.98542L53.4421 4.76919L54.5296 7.74127L52.8462 8.751C52.9027 9.4363 52.8633 10.1258 52.7292 10.8011L54.2827 11.9842L52.8675 14.8216L50.9245 14.3932C50.458 14.9146 49.9213 15.3742 49.3284 15.76L49.554 17.6509L46.4533 18.6933L45.3999 17.0797C44.6849 17.1339 43.9656 17.0961 43.2611 16.9676L42.0268 18.4567L39.0665 17.092L39.5092 15.2378C38.9653 14.7906 38.4858 14.2761 38.0833 13.7079L36.1106 13.9241L35.0231 10.952L36.7064 9.94227C36.65 9.25698 36.6893 8.56752 36.8235 7.89222L35.2699 6.7091L36.6937 3.87573L38.6281 4.30002ZM40.7818 7.50668C40.4015 8.26401 40.264 9.11245 40.3868 9.94468C40.5096 10.7769 40.8871 11.5555 41.4716 12.1821C42.0561 12.8086 42.8214 13.2549 43.6706 13.4645C44.5198 13.6741 45.4147 13.6376 46.2422 13.3596C47.0698 13.0816 47.7927 12.5746 48.3195 11.9027C48.8464 11.2308 49.1536 10.4242 49.2021 9.58502C49.2507 8.74581 49.0385 7.91164 48.5924 7.18803C48.1463 6.46442 47.4863 5.88388 46.6959 5.51986C45.6366 5.03258 44.4189 4.96812 43.3101 5.34063C42.2013 5.71313 41.292 6.49216 40.7818 7.50668Z" fill="#67EEFF"/>
<path d="M62.9366 10.3361C63.2787 9.95384 63.6723 9.6168 64.107 9.3339L63.9416 7.9472L66.2155 7.1828L66.988 8.36606C67.5123 8.32636 68.0398 8.35403 68.5564 8.44833L69.4616 7.35632L71.6324 8.35708L71.3078 9.71685C71.7067 10.0448 72.0583 10.422 72.3534 10.8388L73.8001 10.6802L74.5976 12.8597L73.3632 13.6002C73.4046 14.1028 73.3757 14.6084 73.2773 15.1036L74.4166 15.9712L73.3788 18.052L71.9539 17.7379C71.6118 18.1202 71.2182 18.4572 70.7834 18.7401L70.9489 20.1268L68.675 20.8912L67.9025 19.7079C67.3782 19.7476 66.8507 19.72 66.3341 19.6257L65.4289 20.7177L63.2581 19.7169L63.5827 18.3572C63.1838 18.0292 62.8322 17.652 62.537 17.2352L61.0903 17.3938L60.2928 15.2143L61.5273 14.4738C61.4859 13.9712 61.5148 13.4656 61.6131 12.9704L60.4739 12.1028L61.5179 10.025L62.9366 10.3361ZM64.5159 12.6877C64.237 13.2431 64.1362 13.8653 64.2262 14.4756C64.3163 15.0859 64.5931 15.6569 65.0218 16.1163C65.4504 16.5758 66.0116 16.9031 66.6343 17.0568C67.2571 17.2105 67.9134 17.1837 68.5202 16.9798C69.1271 16.776 69.6572 16.4041 70.0436 15.9114C70.43 15.4187 70.6552 14.8272 70.6908 14.2118C70.7264 13.5964 70.5708 12.9847 70.2437 12.454C69.9165 11.9234 69.4325 11.4976 68.8529 11.2307C68.0761 10.8734 67.1831 10.8261 66.37 11.0993C65.5568 11.3724 64.89 11.9437 64.5159 12.6877Z" fill="#003972"/>
<path d="M63.2616 10.0174C63.6037 9.63511 63.9974 9.29808 64.4321 9.01518L64.2667 7.62848L66.5405 6.86407L67.313 8.04733C67.8373 8.00763 68.3648 8.0353 68.8815 8.1296L69.7866 7.0376L71.9575 8.03835L71.6329 9.39812C72.0317 9.72604 72.3834 10.1033 72.6785 10.52L74.1252 10.3615L74.9227 12.541L73.6882 13.2815C73.7296 13.784 73.7008 14.2896 73.6024 14.7849L74.7417 15.6525L73.7038 17.7333L72.279 17.4191C71.9369 17.8014 71.5433 18.1385 71.1085 18.4214L71.2739 19.8081L69.0001 20.5725L68.2276 19.3892C67.7033 19.4289 67.1758 19.4012 66.6591 19.3069L65.754 20.399L63.5831 19.3982L63.9077 18.0384C63.5089 17.7105 63.1573 17.3332 62.8621 16.9165L61.4154 17.0751L60.6179 14.8955L61.8524 14.1551C61.811 13.6525 61.8398 13.1469 61.9382 12.6517L60.799 11.7841L61.843 9.70628L63.2616 10.0174ZM64.841 12.369C64.5621 12.9243 64.4613 13.5465 64.5513 14.1568C64.6413 14.7671 64.9182 15.3381 65.3469 15.7976C65.7755 16.2571 66.3367 16.5843 66.9594 16.738C67.5822 16.8917 68.2385 16.865 68.8453 16.6611C69.4522 16.4572 69.9823 16.0854 70.3687 15.5927C70.755 15.1 70.9803 14.5085 71.0159 13.8931C71.0515 13.2777 70.8959 12.6659 70.5687 12.1353C70.2416 11.6046 69.7576 11.1789 69.178 10.912C68.4012 10.5546 67.5082 10.5074 66.6951 10.7805C65.8819 11.0537 65.2151 11.625 64.841 12.369Z" fill="#67EEFF"/>
<path d="M34.0027 25.2498C34.2723 24.9486 34.5824 24.683 34.9249 24.4601L34.7946 23.3676L36.5861 22.7653L37.1947 23.6976C37.6078 23.6663 38.0234 23.6881 38.4305 23.7624L39.1436 22.902L40.854 23.6905L40.5983 24.7618C40.9125 25.0202 41.1895 25.3175 41.4221 25.6458L42.5619 25.5209L43.1902 27.2381L42.2176 27.8215C42.2503 28.2174 42.2275 28.6158 42.15 29.0059L43.0476 29.6895L42.2299 31.3289L41.1073 31.0814C40.8378 31.3826 40.5276 31.6482 40.1851 31.8711L40.3154 32.9636L38.5239 33.5659L37.9153 32.6336C37.5022 32.6649 37.0866 32.6431 36.6795 32.5688L35.9664 33.4292L34.256 32.6407L34.5118 31.5694C34.1975 31.311 33.9205 31.0137 33.688 30.6854L32.5481 30.8103L31.9198 29.0931L32.8924 28.5097C32.8598 28.1138 32.8825 27.7154 32.96 27.3253L32.0624 26.6417L32.885 25.0046L34.0027 25.2498ZM35.2471 27.1025C35.0273 27.5401 34.9479 28.0303 35.0188 28.5111C35.0898 28.992 35.3079 29.4418 35.6456 29.8038C35.9834 30.1658 36.4255 30.4237 36.9161 30.5448C37.4068 30.6659 37.9239 30.6448 38.402 30.4842C38.8801 30.3236 39.2978 30.0306 39.6022 29.6424C39.9066 29.2542 40.0841 28.7882 40.1121 28.3033C40.1402 27.8185 40.0176 27.3365 39.7598 26.9184C39.5021 26.5003 39.1208 26.1649 38.6641 25.9546C38.0521 25.673 37.3485 25.6358 36.7078 25.851C36.0672 26.0662 35.5418 26.5163 35.2471 27.1025Z" fill="#003972"/>
<path d="M34.259 24.9987C34.5285 24.6975 34.8386 24.4319 35.1811 24.209L35.0508 23.1165L36.8423 22.5142L37.451 23.4465C37.8641 23.4152 38.2797 23.437 38.6867 23.5113L39.3999 22.6509L41.1102 23.4394L40.8545 24.5107C41.1687 24.7691 41.4458 25.0664 41.6783 25.3947L42.8181 25.2698L43.4465 26.987L42.4738 27.5704C42.5065 27.9663 42.4837 28.3647 42.4062 28.7548L43.3038 29.4384L42.4861 31.0778L41.3635 30.8303C41.094 31.1315 40.7839 31.3971 40.4413 31.62L40.5717 32.7125L38.7802 33.3148L38.1715 32.3825C37.7584 32.4138 37.3428 32.392 36.9358 32.3177L36.2226 33.1781L34.5122 32.3896L34.768 31.3183C34.4538 31.0599 34.1767 30.7626 33.9442 30.4343L32.8043 30.5592L32.176 28.842L33.1486 28.2586C33.116 27.8627 33.1387 27.4643 33.2163 27.0742L32.3187 26.3906L33.1413 24.7535L34.259 24.9987ZM35.5033 26.8514C35.2835 27.289 35.2041 27.7792 35.2751 28.26C35.346 28.7409 35.5641 29.1908 35.9019 29.5527C36.2396 29.9147 36.6817 30.1726 37.1724 30.2937C37.663 30.4148 38.1801 30.3937 38.6582 30.2331C39.1363 30.0725 39.554 29.7795 39.8584 29.3913C40.1628 29.0031 40.3403 28.5371 40.3684 28.0522C40.3964 27.5674 40.2738 27.0854 40.0161 26.6673C39.7583 26.2492 39.377 25.9138 38.9203 25.7035C38.3083 25.4219 37.6047 25.3847 36.9641 25.5999C36.3234 25.8151 35.798 26.2652 35.5033 26.8514Z" fill="#67EEFF"/>
<path d="M22.7785 85.4103C22.3536 85.5406 10.3462 85.2869 9.8952 84.9937C9.72431 84.8843 9.65785 83.1666 9.64124 81.0906C9.64124 80.6414 9.64124 80.1806 9.64124 79.7081C9.64124 79.1495 9.64124 78.5863 9.64124 78.0393C9.67446 75.5792 9.75042 73.4147 9.75042 73.4147L17.5663 73.5567L17.4927 78.1813L17.4595 79.8501L17.393 81.2302C17.393 81.2302 21.9454 83.3435 22.4058 83.7182C22.8663 84.093 23.1891 85.2823 22.7785 85.4103Z" fill="#D8DAE5"/>
<path d="M22.7785 85.4103C22.3536 85.5407 10.3462 85.287 9.8952 84.9937C9.72431 84.8843 9.65785 83.1667 9.64124 81.0906C9.64124 80.6414 9.64124 80.1806 9.64124 79.7081C9.64124 79.1496 9.64124 78.5863 9.64124 78.0394L17.4737 78.1813L17.4405 79.8501L17.374 81.2303C17.374 81.2303 21.9264 83.3436 22.3868 83.7183C22.8473 84.093 23.1891 85.2823 22.7785 85.4103Z" fill="white"/>
<path d="M22.814 85.4289C22.5387 85.5127 17.4238 85.4289 13.6998 85.2939C12.8383 85.259 12.0384 85.2218 11.4166 85.1845C10.5407 85.1287 9.95211 85.0705 9.85954 85.01C9.65068 84.8727 9.59609 82.3521 9.59846 79.6942L17.4547 79.8361L17.3882 81.2326C17.3882 81.2326 21.9667 83.3575 22.4295 83.7322C22.8923 84.107 23.2365 85.2986 22.814 85.4289Z" fill="#003972"/>
<path d="M22.6502 84.9519C20.628 84.8611 12.4585 84.6796 10.4529 84.7401C10.4363 84.7401 10.4363 84.7517 10.4529 84.7517C12.4561 84.8867 20.6256 85.0007 22.6502 84.9844C22.6929 84.9961 22.6929 84.9542 22.6502 84.9519Z" fill="#003972"/>
<path d="M17.6848 80.7904C16.8897 80.6274 15.9142 80.7275 15.2923 81.2698C15.2686 81.2908 15.2923 81.3257 15.3255 81.3164C16.0919 81.0924 16.8804 80.9488 17.6777 80.8881C17.6842 80.8886 17.6908 80.8878 17.697 80.8857C17.7032 80.8837 17.709 80.8805 17.714 80.8763C17.7189 80.8721 17.723 80.8669 17.7259 80.8612C17.7289 80.8554 17.7306 80.8492 17.7311 80.8427C17.7315 80.8363 17.7307 80.8299 17.7286 80.8238C17.7266 80.8177 17.7233 80.812 17.719 80.8072C17.7147 80.8023 17.7095 80.7983 17.7036 80.7954C17.6977 80.7925 17.6913 80.7908 17.6848 80.7904Z" fill="#003972"/>
<path d="M18.2522 81.1419C17.4571 80.979 16.4816 81.079 15.8597 81.6237C15.836 81.6446 15.8597 81.6772 15.8929 81.6702C16.659 81.4445 17.4476 81.3002 18.2451 81.2396C18.2583 81.2406 18.2713 81.2363 18.2813 81.2278C18.2914 81.2193 18.2975 81.2072 18.2985 81.1942C18.2994 81.1813 18.2951 81.1685 18.2864 81.1587C18.2777 81.1488 18.2654 81.1428 18.2522 81.1419Z" fill="#003972"/>
<path d="M18.8194 81.5049C18.0266 81.342 17.0488 81.4421 16.4293 81.9867C16.4032 82.0076 16.4293 82.0402 16.4601 82.0332C17.227 81.8081 18.0164 81.6645 18.8146 81.605C18.8264 81.6031 18.8372 81.5973 18.8452 81.5885C18.8532 81.5797 18.8578 81.5686 18.8584 81.5568C18.8589 81.5451 18.8553 81.5336 18.8482 81.5241C18.8412 81.5147 18.831 81.5079 18.8194 81.5049Z" fill="#003972"/>
<path d="M19.3914 81.8446C18.5987 81.6817 17.6208 81.7818 17.0013 82.3264C16.9752 82.3474 17.0013 82.3799 17.0322 82.373C17.799 82.1478 18.5884 82.0042 19.3866 81.9447C19.3985 81.9428 19.4093 81.937 19.4172 81.9282C19.4252 81.9195 19.4298 81.9083 19.4304 81.8966C19.4309 81.8848 19.4274 81.8733 19.4203 81.8638C19.4132 81.8544 19.403 81.8476 19.3914 81.8446Z" fill="#003972"/>
<path d="M19.1943 79.0146C18.8905 78.5863 18.3043 78.7632 17.9649 79.0309C17.3928 79.4991 16.9564 80.1067 16.6998 80.7927C16.6983 80.7957 16.6975 80.7991 16.6975 80.8025C16.6976 80.8058 16.6984 80.8091 16.7001 80.8121C16.7017 80.8151 16.704 80.8176 16.7069 80.8195C16.7097 80.8214 16.713 80.8226 16.7164 80.823C16.7164 80.8812 16.771 80.9463 16.8398 80.9231C17.5044 80.6903 18.2402 80.5367 18.8122 80.1201C19.154 79.8757 19.4815 79.4219 19.1943 79.0146ZM17.7702 80.3808C17.4451 80.4972 17.1199 80.5996 16.7995 80.7299C17.0487 80.3878 17.2742 80.0317 17.5614 79.7175C17.6949 79.5613 17.8393 79.4143 17.9934 79.2776C18.2307 79.0728 19.1801 78.6422 19.0258 79.4964C18.9427 79.9665 18.1595 80.2388 17.775 80.3808H17.7702Z" fill="#003972"/>
<path d="M14.68 80.5484C15.3304 80.8346 16.0851 80.837 16.7806 80.9184C16.7962 80.919 16.8117 80.9159 16.8259 80.9095C16.8401 80.903 16.8525 80.8934 16.8622 80.8814C16.8719 80.8694 16.8786 80.8554 16.8817 80.8404C16.8849 80.8254 16.8844 80.8098 16.8803 80.7951C16.8846 80.7907 16.887 80.7849 16.887 80.7788C16.887 80.7727 16.8846 80.7668 16.8803 80.7625C16.4788 80.1464 15.9199 79.6441 15.2592 79.3055C14.8699 79.1147 14.2576 79.0728 14.0534 79.5383C13.8493 80.0037 14.3003 80.3785 14.68 80.5484ZM14.3311 79.9828C13.9917 79.1822 15.01 79.4033 15.2805 79.5545C15.46 79.6565 15.6328 79.7692 15.798 79.892C16.1334 80.1527 16.455 80.43 16.7616 80.7229C16.4222 80.6624 16.0804 80.6322 15.7386 80.5833C15.3565 80.5274 14.521 80.425 14.3311 79.9828Z" fill="#003972"/>
<path opacity="0.2" d="M16.6667 85.387C15.658 85.3614 14.635 85.3289 13.6998 85.2916C12.8383 85.2614 12.0384 85.2241 11.4165 85.1846C10.5407 85.1287 9.9521 85.0705 9.85954 85.0077C9.67678 84.889 9.62219 82.9409 9.60083 80.674C11.3833 81.8424 14.8818 84.1908 16.6667 85.387Z" fill="#003972"/>
<path d="M18.1549 81.1349H9.23295C9.23295 81.1349 9.72188 61.4425 9.62694 60.984C9.3896 59.8878 4.32458 42.5275 4.32458 42.5275L11.3691 42.6462L13.7734 42.6858C13.7734 42.6858 13.5669 45.5788 13.65 45.8837C14.8367 50.0963 17.1271 57.2881 17.5947 59.9553C18.4088 64.5845 18.1549 81.1349 18.1549 81.1349Z" fill="#0CBBE2"/>
<path opacity="0.6" d="M18.1549 81.1349H9.23295C9.23295 81.1349 9.72188 61.4425 9.62694 60.984C9.3896 59.8878 4.32458 42.5275 4.32458 42.5275L11.3691 42.6462L13.7734 42.6858C13.7734 42.6858 13.5669 45.5788 13.65 45.8837C14.8367 50.0963 17.1271 57.2881 17.5947 59.9553C18.4088 64.5845 18.1549 81.1349 18.1549 81.1349Z" fill="white"/>
<path d="M17.8653 79.6731C16.4745 79.6382 11.5447 79.4939 9.68868 79.6289C9.6849 79.6289 9.68128 79.6303 9.67861 79.633C9.67594 79.6356 9.67444 79.6391 9.67444 79.6428C9.67444 79.6465 9.67594 79.6501 9.67861 79.6527C9.68128 79.6553 9.6849 79.6568 9.68868 79.6568C10.3248 79.7569 16.4745 79.729 17.8653 79.7103C17.8704 79.7103 17.8752 79.7084 17.8788 79.7049C17.8823 79.7014 17.8843 79.6966 17.8843 79.6917C17.8843 79.6868 17.8823 79.682 17.8788 79.6785C17.8752 79.6751 17.8704 79.6731 17.8653 79.6731Z" fill="#D8DAE5"/>
<path d="M10.327 60.5579C10.0612 59.4943 8.0746 52.8611 7.46462 50.7664C6.85463 48.6718 6.27788 46.5771 5.76283 44.4545C5.69638 44.1868 5.62992 43.9192 5.55634 43.6515C5.55634 43.6282 5.51836 43.6399 5.52074 43.6515C5.72248 44.7175 5.99543 45.7718 6.23278 46.8261C6.47013 47.8804 6.75969 48.9208 7.04689 49.9774C7.62285 52.0783 8.25103 54.166 8.93143 56.2405C9.27084 57.2739 9.83335 59.3942 10.1324 60.4299C10.4315 61.4656 9.94253 78.6234 9.97339 78.9004C9.97339 78.917 9.98014 78.933 9.99216 78.9448C10.0042 78.9566 10.0205 78.9632 10.0375 78.9632C10.0545 78.9632 10.0708 78.9566 10.0828 78.9448C10.0948 78.933 10.1016 78.917 10.1016 78.9004C10.149 76.8964 10.5905 61.6099 10.327 60.5579Z" fill="#D8DAE5"/>
<path d="M11.369 42.6532C11.369 42.6532 9.64586 61.0817 9.62687 60.991C9.40614 59.932 4.64256 43.6051 4.33638 42.5857L4.32214 42.5368L11.369 42.6532Z" fill="#D8DAE5"/>
<path d="M13.5241 86.4204C13.1016 86.5484 1.09421 86.2971 0.643245 86.0038C0.472354 85.8944 0.405897 84.1745 0.389282 82.0984C0.389282 81.6492 0.389282 81.1884 0.389282 80.7159C0.389282 80.1596 0.389282 79.5964 0.389282 79.0471C0.420137 76.5894 0.496089 74.4225 0.496089 74.4225L8.31434 74.5645L8.23601 79.1891L8.20278 80.8579L8.13633 82.2404C8.13633 82.2404 12.6887 84.3537 13.1491 84.7284C13.6096 85.1031 13.9466 86.2924 13.5241 86.4204Z" fill="#D8DAE5"/>
<path d="M13.5241 86.4203C13.1016 86.5483 1.09421 86.297 0.643245 86.0037C0.472354 85.8943 0.405897 84.1744 0.389282 82.0983C0.389282 81.6491 0.389282 81.1883 0.389282 80.7158C0.389282 80.1596 0.389282 79.5963 0.389282 79.0471L8.22177 79.189L8.18854 80.8578L8.12208 82.2403C8.12208 82.2403 12.6744 84.3536 13.1349 84.7283C13.5953 85.103 13.9466 86.2923 13.5241 86.4203Z" fill="white"/>
<path d="M13.5622 86.4367C13.2845 86.5205 8.16963 86.4367 4.44801 86.3041C3.58644 86.2692 2.78657 86.2319 2.16235 86.1924C1.28891 86.1365 0.700283 86.0807 0.605344 86.0178C0.396477 85.8828 0.344261 83.3622 0.346634 80.702L8.20286 80.8463L8.1364 82.2427C8.1364 82.2427 12.7148 84.3677 13.1777 84.7447C13.6405 85.1218 13.9847 86.3064 13.5622 86.4367Z" fill="#003972"/>
<path d="M13.3984 85.9596C11.3762 85.8688 3.20665 85.6896 1.20106 85.7501C1.18445 85.7501 1.18445 85.7501 1.20106 85.7618C3.20428 85.8944 11.3738 86.0108 13.4008 85.9945C13.4411 85.9922 13.4411 85.9619 13.3984 85.9596Z" fill="#003972"/>
<path d="M8.43071 81.7982C7.63797 81.6376 6.66246 81.7354 6.04061 82.28C6.01688 82.3009 6.04061 82.3335 6.07384 82.3265C6.83993 82.1014 7.62852 81.9578 8.42596 81.8983C8.43778 81.8964 8.44857 81.8906 8.45653 81.8818C8.46449 81.873 8.46914 81.8619 8.4697 81.8501C8.47025 81.8384 8.46668 81.8268 8.45958 81.8174C8.45249 81.8079 8.44229 81.8012 8.43071 81.7982Z" fill="#003972"/>
<path d="M8.99797 82.1518C8.20523 81.9889 7.22973 82.089 6.60787 82.6313C6.58414 82.6522 6.60787 82.6848 6.6411 82.6778C7.40747 82.4538 8.19593 82.3103 8.99322 82.2496C9.00644 82.2502 9.01937 82.2456 9.02916 82.2369C9.03896 82.2282 9.04481 82.216 9.04544 82.203C9.04607 82.1901 9.04142 82.1774 9.03252 82.1678C9.02362 82.1582 9.01119 82.1524 8.99797 82.1518Z" fill="#003972"/>
<path d="M9.5676 82.5033C8.77249 82.3404 7.79699 82.4405 7.17513 82.9828C7.1514 83.0037 7.17513 83.0386 7.20836 83.0293C7.97473 82.8053 8.76319 82.6617 9.56048 82.6011C9.56703 82.6015 9.5736 82.6007 9.57983 82.5987C9.58605 82.5967 9.59181 82.5934 9.59677 82.5892C9.60173 82.585 9.60579 82.5799 9.60873 82.5741C9.61167 82.5684 9.61342 82.5621 9.61389 82.5557C9.61435 82.5493 9.61353 82.5428 9.61145 82.5367C9.60938 82.5306 9.6061 82.525 9.6018 82.5201C9.59751 82.5152 9.59228 82.5113 9.58641 82.5084C9.58054 82.5055 9.57415 82.5038 9.5676 82.5033Z" fill="#003972"/>
<path d="M10.1347 82.8548C9.33963 82.6918 8.36412 82.7919 7.74227 83.3342C7.71854 83.3575 7.74227 83.3901 7.7755 83.3831C8.54384 83.1568 9.33483 83.0124 10.1347 82.9525C10.148 82.9525 10.1606 82.9474 10.17 82.9382C10.1793 82.929 10.1846 82.9166 10.1846 82.9036C10.1846 82.8907 10.1793 82.8782 10.17 82.8691C10.1606 82.8599 10.148 82.8548 10.1347 82.8548Z" fill="#003972"/>
<path d="M9.94251 80.0246C9.6387 79.594 9.05008 79.7732 8.71305 80.0386C8.14083 80.5076 7.70454 81.116 7.44798 81.8027C7.4463 81.8056 7.44543 81.8088 7.44543 81.8121C7.44544 81.8154 7.44633 81.8186 7.44802 81.8214C7.44971 81.8243 7.45213 81.8266 7.45504 81.8282C7.45795 81.8299 7.46125 81.8307 7.46459 81.8307C7.46459 81.8912 7.51918 81.954 7.58801 81.9307C8.25021 81.698 8.98837 81.5467 9.56038 81.1278C9.89741 80.8857 10.2297 80.4296 9.94251 80.0246ZM8.51842 81.3885C8.19563 81.5072 7.86809 81.6096 7.55004 81.7399C7.78606 81.389 8.04036 81.0503 8.31193 80.7251C8.44612 80.5703 8.59042 80.4241 8.7439 80.2876C8.98125 80.0804 9.93064 79.6499 9.77399 80.504C9.68855 80.9742 8.90767 81.2465 8.52079 81.3885H8.51842Z" fill="#003972"/>
<path d="M5.4281 81.556C6.07844 81.8446 6.8332 81.8469 7.52863 81.9284C7.54451 81.929 7.56031 81.9259 7.57472 81.9194C7.58914 81.9128 7.60175 81.903 7.6115 81.8907C7.62126 81.8784 7.62787 81.864 7.6308 81.8487C7.63372 81.8334 7.63287 81.8176 7.62832 81.8027C7.63077 81.801 7.63277 81.7987 7.63414 81.7961C7.63552 81.7934 7.63624 81.7905 7.63624 81.7876C7.63624 81.7846 7.63552 81.7817 7.63414 81.7791C7.63277 81.7764 7.63077 81.7741 7.62832 81.7724C7.22871 81.1557 6.67039 80.6532 6.00961 80.3155C5.62035 80.1246 5.008 80.0827 4.80388 80.5482C4.59976 81.0137 5.04834 81.3884 5.4281 81.556ZM5.0792 80.9927C4.73742 80.1898 5.75802 80.4132 6.02859 80.5645C6.20939 80.6642 6.38235 80.777 6.54601 80.902C6.88691 81.1632 7.21333 81.4421 7.52389 81.7375C7.18448 81.677 6.8427 81.6444 6.50092 81.5979C6.0998 81.535 5.2667 81.4326 5.0792 80.9927Z" fill="#003972"/>
<path d="M8.65609 82.0263L0 81.8704C0 81.8704 2.43045 51.2531 2.13613 49.6309C1.64008 46.9753 2.06256 43.945 3.3656 42.5067L11.8009 42.6603C11.8009 42.6603 11.9244 44.9877 11.0272 46.3539C11.0272 46.3539 10.2273 46.831 9.84045 47.0405L8.65609 82.0263Z" fill="#0CBBE2"/>
<path opacity="0.6" d="M8.65609 82.0263L0 81.8704C0 81.8704 2.43045 51.2531 2.13613 49.6309C1.64008 46.9753 2.06256 43.945 3.3656 42.5067L11.8009 42.6603C11.8009 42.6603 11.9244 44.9877 11.0272 46.3539C11.0272 46.3539 10.2273 46.831 9.84045 47.0405L8.65609 82.0263Z" fill="white"/>
<path d="M8.41878 80.5203C7.10625 80.4621 7.48363 80.4598 6.16873 80.4179C5.52788 80.397 1.30309 80.262 0.709717 80.3457C0.709717 80.3457 0.709717 80.369 0.709717 80.3714C1.30783 80.4831 5.53263 80.5459 6.16873 80.5529C7.48363 80.5715 7.11812 80.5529 8.41878 80.5529C8.44252 80.5575 8.44252 80.5203 8.41878 80.5203Z" fill="#D8DAE5"/>
<path d="M11.5589 45.9931C10.7227 46.3702 9.92074 46.8163 9.16168 47.3267C9.15714 47.3311 9.15423 47.3369 9.15342 47.3431C9.15262 47.3493 9.15397 47.3556 9.15726 47.361C9.16054 47.3664 9.16557 47.3705 9.17154 47.3727C9.17751 47.3749 9.18407 47.3751 9.19016 47.3733C10.0019 46.952 10.8302 46.5447 11.6135 46.0839C11.621 46.0812 11.6278 46.0769 11.6334 46.0713C11.639 46.0657 11.6433 46.059 11.6459 46.0516C11.6486 46.0442 11.6496 46.0364 11.6488 46.0286C11.6481 46.0208 11.6456 46.0132 11.6415 46.0065C11.6375 45.9998 11.6319 45.994 11.6254 45.9895C11.6188 45.9851 11.6113 45.9822 11.6034 45.9809C11.5955 45.9796 11.5875 45.98 11.5798 45.9822C11.5721 45.9843 11.565 45.988 11.5589 45.9931Z" fill="#D8DAE5"/>
<path d="M10.4813 45.8534C10.4285 46.0124 10.3872 46.175 10.3579 46.3398C10.321 46.4676 10.3097 46.6011 10.3247 46.7331C10.3269 46.7381 10.3305 46.7423 10.3352 46.7453C10.3398 46.7483 10.3452 46.7499 10.3508 46.7499C10.3563 46.7499 10.3617 46.7483 10.3664 46.7453C10.371 46.7423 10.3747 46.7381 10.3769 46.7331C10.4439 46.6098 10.4911 46.4772 10.5169 46.3398C10.5596 46.1885 10.6047 46.0395 10.6451 45.8859C10.6449 45.8668 10.638 45.8482 10.6255 45.8335C10.613 45.8187 10.5958 45.8085 10.5766 45.8047C10.5575 45.8009 10.5375 45.8036 10.5202 45.8125C10.5028 45.8214 10.4891 45.8358 10.4813 45.8534Z" fill="#D8DAE5"/>
<path d="M10.4196 45.0551C10.4457 44.9177 10.4694 44.7804 10.4979 44.6431C10.5264 44.5058 10.5667 44.3592 10.5834 44.2149C10.5834 44.1916 10.6237 44.2009 10.619 44.2149C10.5952 44.3522 10.5905 44.4942 10.5762 44.6338C10.562 44.7734 10.5454 44.9131 10.5288 45.0527C10.4961 45.3149 10.4494 45.5751 10.3887 45.8324C10.5292 45.8114 10.663 45.7597 10.7804 45.6811C10.8919 45.574 10.9672 45.4359 10.9963 45.2855C11.0391 45.1295 11.077 44.9689 11.1245 44.82C11.1852 44.649 11.2297 44.473 11.2574 44.294C11.2574 44.2707 11.2978 44.2777 11.293 44.294C11.2531 44.6711 11.1736 45.0431 11.0557 45.4042C11.0302 45.5478 10.9526 45.6775 10.8373 45.7696C10.6896 45.8434 10.5281 45.8869 10.3626 45.8976C10.3436 45.8976 10.3151 45.8976 10.3175 45.8743C10.3376 45.5997 10.3717 45.3263 10.4196 45.0551Z" fill="#D8DAE5"/>
<path d="M3.50089 49.5493C3.45104 48.9418 3.36085 48.3367 3.30626 47.7269C3.20132 46.5076 3.29992 45.2797 3.5982 44.0915C3.5982 44.0872 3.59645 44.083 3.59333 44.08C3.59022 44.0769 3.58599 44.0752 3.58159 44.0752C3.57718 44.0752 3.57295 44.0769 3.56984 44.08C3.56672 44.083 3.56497 44.0872 3.56497 44.0915C3.30376 45.135 3.17147 46.2056 3.17097 47.2801C3.2042 48.353 3.37984 49.4143 3.37747 50.4896C3.37509 51.5649 3.26591 52.6634 3.17335 53.748C3.08078 54.8326 2.99059 55.9288 2.89802 57.0203C2.52776 61.4029 2.18598 65.7877 1.82284 70.1726C1.72315 71.3968 1.63058 72.6211 1.53564 73.8453C1.4407 75.0695 1.2983 78.1627 1.21997 79.4102C1.21997 79.5196 1.37899 79.5126 1.38849 79.4102C1.62584 77.2108 1.80622 73.175 1.99135 70.9733C2.17648 68.7715 2.34737 66.6117 2.52301 64.4285C2.69865 62.2454 2.87666 60.0669 3.04993 57.8861C3.13537 56.8 3.22003 55.7092 3.30389 54.6138C3.38933 53.5292 3.49139 52.4423 3.54124 51.3554C3.56146 50.7531 3.54799 50.1502 3.50089 49.5493Z" fill="#D8DAE5"/>
<path d="M6.59111 44.0705C6.59111 44.0565 6.56738 44.0519 6.55788 44.0705C6.50414 44.213 6.47448 44.3632 6.47006 44.515C6.44068 44.6732 6.39862 44.8289 6.34427 44.9805C6.24703 45.2955 6.06789 45.5802 5.82447 45.8068C5.28332 46.2723 4.5689 46.4515 3.88059 46.6051C3.85449 46.6051 3.86398 46.6446 3.88059 46.647C4.28325 46.6696 4.6865 46.6142 5.06734 46.484C5.41045 46.3887 5.72859 46.222 6.00011 45.9953C6.25892 45.762 6.43866 45.4566 6.51516 45.1202C6.55378 44.9441 6.57603 44.7649 6.58162 44.5849C6.58162 44.4988 6.58162 44.4126 6.58162 44.3265C6.60184 44.2426 6.60506 44.1556 6.59111 44.0705Z" fill="#D8DAE5"/>
<path d="M11.5756 31.2324C12.8454 35.2356 15.4087 39.1317 16.2038 39.6623C17.4333 40.4839 23.2673 41.1891 25.1851 40.968C25.8141 40.8959 25.5815 36.6227 25.0071 36.2736C24.4327 35.9245 18.7601 35.8547 18.3756 35.7057C18.1715 35.6266 15.1476 32.2146 13.4459 30.4201C11.8604 28.7444 11.191 30.0058 11.5756 31.2324Z" fill="#D8DAE5"/>
<path d="M16.0211 32.9734L12.7813 35.5336C12.7813 35.5336 11.3572 32.5312 11.2528 30.7111C11.1483 28.8911 12.0218 29.0959 13.0542 29.971C14.0867 30.8461 16.0211 32.9734 16.0211 32.9734Z" fill="#0CBBE2"/>
<path d="M15.4444 32.6056C15.4657 32.5893 15.461 32.5707 15.4444 32.5846C14.4918 33.2416 13.5818 33.9559 12.7196 34.7235V34.7352C13.2204 34.4489 15.207 32.7848 15.4444 32.6056Z" fill="#003972"/>
<path d="M1.97485 43.4608C1.99621 43.498 14.2434 45.9139 14.3787 45.8115C14.5709 45.6695 14.7964 33.2434 13.3296 30.2527C12.9617 29.5079 11.3026 28.7468 10.4529 29.2868C7.99874 30.8485 7.2511 32.3962 6.45598 33.6298C5.65748 34.9708 4.93947 36.3564 4.30561 37.7796C3.04766 40.4887 1.89652 43.3351 1.97485 43.4608Z" fill="#0CBBE2"/>
<path d="M10.2393 29.2775C10.2393 29.2775 11.3097 33.646 11.426 34.733C11.5755 36.2179 10.4766 45.6532 10.4766 45.6532L1.77307 43.6051C1.77307 43.6051 5.15054 34.57 7.65218 31.5956C9.62929 29.2542 10.2393 29.2775 10.2393 29.2775Z" fill="#003972"/>
<path d="M13.0542 29.9733C13.0542 29.9733 13.4007 33.8508 13.5004 34.4396C13.6001 35.0284 13.4007 46.1768 13.4007 46.1768L14.5566 45.972C14.5566 45.972 14.7085 38.2566 14.3193 34.2487C13.93 30.2409 13.0542 29.9733 13.0542 29.9733Z" fill="#003972"/>
<path d="M10.8682 41.9595L3.00244 40.563C3.12112 40.2837 3.23979 39.9928 3.37745 39.6926L10.9726 41.0401C10.9322 41.3497 10.899 41.6592 10.8682 41.9595Z" fill="#0CBBE2"/>
<path d="M14.5874 42.6182L13.4624 42.4204C13.4624 42.1155 13.4624 41.8013 13.4624 41.4894L14.5732 41.6873C14.5874 42.0038 14.5874 42.318 14.5874 42.6182Z" fill="#0CBBE2"/>
<path d="M10.695 43.5679L2.36169 42.0853L2.72484 41.2148L10.7947 42.6509C10.7591 42.979 10.7235 43.2863 10.695 43.5679Z" fill="#0CBBE2"/>
<path d="M14.5804 44.2661L13.4364 44.0637C13.4364 43.7727 13.4364 43.4585 13.453 43.1327L14.5852 43.3328C14.5828 43.6657 14.5804 43.9775 14.5804 44.2661Z" fill="#0CBBE2"/>
<path d="M29.472 25.4446C30.2696 24.7061 31.2616 24.2006 32.3364 23.9851C33.4112 23.7696 34.526 23.8527 35.5552 24.225L32.0448 27.4834L33.1698 29.9831L35.643 31.212L39.1558 27.9536C39.4648 28.9394 39.4993 29.9884 39.2559 30.9918C39.0124 31.9951 38.4997 32.9164 37.7709 33.6601C37.0422 34.4038 36.1239 34.9429 35.1112 35.2215C34.0985 35.5001 33.0282 35.5081 32.0113 35.2446C30.9944 34.9812 30.0678 34.4558 29.3276 33.7231C28.5874 32.9903 28.0605 32.0768 27.8015 31.0772C27.5425 30.0775 27.5608 29.0282 27.8545 28.0378C28.1482 27.0474 28.7066 26.1521 29.472 25.4446Z" fill="#003972"/>
<path d="M12.9264 56.6624C12.1286 57.4006 11.1366 57.9061 10.062 58.1219C8.9874 58.3378 7.87269 58.2555 6.84314 57.8843L10.3535 54.6259L9.22849 52.1263L6.7482 50.8811L3.23545 54.1395C2.92957 53.1535 2.89789 52.1054 3.1437 51.1034C3.38951 50.1014 3.90388 49.182 4.63359 48.4404C5.3633 47.6987 6.28184 47.1617 7.29418 46.885C8.30653 46.6082 9.3759 46.6017 10.3917 46.8661C11.4074 47.1306 12.3327 47.6564 13.0717 48.3891C13.8108 49.1218 14.3367 50.0349 14.5952 51.0338C14.8536 52.0327 14.8352 53.0812 14.5418 54.0708C14.2484 55.0603 13.6907 55.9551 12.9264 56.6624Z" fill="#003972"/>
<path d="M9.45702 48.3787L13.0626 52.1241L33.9188 32.8179L30.3132 29.0725L9.45702 48.3787Z" fill="#003972"/>
<path d="M28.7085 25.8794C29.5061 25.1409 30.4982 24.6354 31.573 24.4199C32.6478 24.2045 33.7625 24.2875 34.7918 24.6598L31.2814 27.9182L32.4064 30.4179L34.8796 31.6468L38.3923 28.3884C38.7014 29.3742 38.7359 30.4232 38.4924 31.4266C38.2489 32.43 37.7363 33.3512 37.0075 34.0949C36.2787 34.8386 35.3604 35.3777 34.3477 35.6563C33.335 35.9349 32.2648 35.9429 31.2479 35.6794C30.231 35.416 29.3044 34.8906 28.5642 34.1579C27.824 33.4251 27.2971 32.5116 27.0381 31.512C26.7791 30.5124 26.7974 29.463 27.0911 28.4726C27.3848 27.4823 27.9432 26.5869 28.7085 25.8794Z" fill="#0CBBE2"/>
<path d="M12.1629 57.0972C11.3651 57.8354 10.3732 58.3408 9.29859 58.5567C8.22397 58.7725 7.10927 58.6902 6.07972 58.3191L9.59009 55.0607L8.46506 52.561L5.98478 51.3158L2.47202 54.5742C2.16614 53.5883 2.13446 52.5401 2.38027 51.5381C2.62609 50.5362 3.14045 49.6168 3.87016 48.8751C4.59987 48.1335 5.51841 47.5965 6.53076 47.3197C7.5431 47.0429 8.61247 47.0364 9.62824 47.3009C10.644 47.5653 11.5693 48.0911 12.3083 48.8238C13.0473 49.5566 13.5733 50.4696 13.8317 51.4685C14.0902 52.4674 14.0718 53.5159 13.7784 54.5055C13.485 55.4951 12.9273 56.3898 12.1629 57.0972Z" fill="#0CBBE2"/>
<path d="M8.69359 48.8135L12.2992 52.5588L33.1554 33.2526L29.5498 29.5072L8.69359 48.8135Z" fill="#0CBBE2"/>
<path d="M14.8783 44.2346L16.3625 45.7764L24.9508 37.8264L23.4665 36.2846L14.8783 44.2346Z" fill="#D8DAE5"/>
<path d="M8.23602 31.9307C7.00893 35.0006 6.8499 39.5786 7.99867 40.9052C9.80726 42.9999 13.0779 44.8735 14.68 45.346C15.6152 45.6229 17.0535 40.3909 16.2441 40.1046C14.953 39.6531 11.8912 38.4288 11.4758 38.1519C11.0605 37.8749 10.7495 34.6375 10.3342 32.2542C9.89745 29.6521 8.86262 30.355 8.23602 31.9307Z" fill="#D8DAE5"/>
<path d="M14.2717 45.1807C17.0392 46.2932 20.3336 45.8975 20.8724 45.7113C21.3328 45.5554 21.5702 45.4786 21.5702 45.4786C22.4009 45.2132 22.6074 44.7478 22.6074 44.7478C22.6074 44.7478 23.6612 44.7198 23.749 44.0914C23.8487 43.3932 22.3511 43.5677 21.4634 43.1605C19.4364 42.2528 16.809 40.4071 16.2417 40.0906L14.2717 45.1807Z" fill="#D8DAE5"/>
<path d="M18.6579 43.6772C19.2479 43.9502 19.8561 44.1834 20.4784 44.3754C21.1734 44.5431 21.8804 44.6591 22.5932 44.7222C22.5968 44.7235 22.5999 44.7259 22.6022 44.729C22.6044 44.7322 22.6056 44.7359 22.6056 44.7397C22.6056 44.7435 22.6044 44.7472 22.6022 44.7503C22.5999 44.7534 22.5968 44.7558 22.5932 44.7571C21.2026 44.7769 19.8331 44.4218 18.6342 43.7307C18.6057 43.7121 18.6271 43.6656 18.6579 43.6772Z" fill="#003972"/>
<path d="M19.09 41.9178C18.874 41.6967 18.9903 41.585 19.541 41.6594C20.0916 41.7339 22.2017 42.4903 22.4082 41.7455C22.6146 41.0008 19.6193 39.979 18.6937 39.9208C17.8761 39.9115 17.0591 39.9691 16.2513 40.0931C16.7949 40.405 18.0338 41.2894 19.09 41.9178Z" fill="#D8DAE5"/>
<path d="M11.0462 35.7035L6.89734 36.027C6.89734 36.027 7.45511 32.7686 8.40925 31.1999C9.36339 29.6312 9.97337 30.2922 10.3223 31.5863C10.6712 32.8803 11.0462 35.7035 11.0462 35.7035Z" fill="#0CBBE2"/>
<path d="M10.7805 35.0821C10.809 35.0821 10.8161 35.0612 10.7805 35.0612C9.61524 35.0798 8.45233 35.17 7.29858 35.3311C7.29858 35.3311 7.29858 35.3451 7.29858 35.3451C7.88483 35.3707 10.4814 35.0961 10.7805 35.0821Z" fill="#003972"/>
<path d="M12.3327 31.3442C11.8057 31.3442 10.7401 30.355 10.3389 29.5288C10.3105 29.4729 10.4315 28.8981 10.5407 28.1928C10.6071 27.7646 10.6689 27.2875 10.695 26.8476L13.4719 27.6715C13.2796 28.2131 13.156 28.776 13.104 29.3472C13.0979 29.4076 13.0979 29.4684 13.104 29.5288C13.104 29.5288 13.104 29.5474 13.104 29.559C13.1515 29.9058 13.1563 31.3325 12.3327 31.3442Z" fill="#D8DAE5"/>
<path d="M13.1112 29.5287C13.1104 29.5396 13.1104 29.5505 13.1112 29.5613C13.014 29.5671 12.9165 29.5671 12.8193 29.5613C11.1887 29.4356 10.8968 27.4457 10.8469 26.8987L13.4578 27.6738C13.2654 28.2154 13.1418 28.7782 13.0899 29.3495C13.0921 29.4097 13.0993 29.4696 13.1112 29.5287Z" fill="#003972"/>
<path d="M10.8468 23.1144C10.3721 24.0267 10.3721 26.9057 10.9702 27.6505C11.8199 28.7281 13.4648 29.1052 14.464 28.0462C15.4632 26.9872 15.3493 23.268 14.6705 22.5651C13.6807 21.5317 11.5589 21.7668 10.8468 23.1144Z" fill="#D8DAE5"/>
<path d="M13.498 25.2394C13.498 25.2394 13.4838 25.2394 13.4838 25.2557C13.498 25.4488 13.4838 25.6746 13.3058 25.7468C13.5265 25.7165 13.5431 25.4139 13.498 25.2394Z" fill="#003972"/>
<path d="M13.3129 25.0439C12.9948 25.0439 12.9972 25.6583 13.2915 25.67C13.5858 25.6816 13.5811 25.0532 13.3129 25.0439Z" fill="#003972"/>
<path d="M14.5519 25.1998C14.5519 25.1998 14.5661 25.1998 14.5661 25.2184C14.5661 25.4116 14.5875 25.6351 14.7655 25.6979V25.7095C14.5471 25.6793 14.5139 25.3837 14.5519 25.1998Z" fill="#003972"/>
<path d="M14.7276 24.9974C15.0456 24.9718 15.0717 25.5979 14.7774 25.6212C14.4831 25.6444 14.4594 25.0184 14.7276 24.9974Z" fill="#003972"/>
<path d="M13.0614 24.7577C13.1419 24.7328 13.2211 24.7041 13.2987 24.6716C13.391 24.6539 13.4746 24.6064 13.5361 24.5366C13.55 24.5108 13.5552 24.4814 13.551 24.4525C13.5467 24.4236 13.5332 24.3968 13.5123 24.376C13.4639 24.3423 13.4073 24.3216 13.3482 24.3159C13.2891 24.3102 13.2295 24.3197 13.1753 24.3434C13.0579 24.3764 12.9572 24.4511 12.8928 24.5529C12.8788 24.5776 12.8727 24.6058 12.8752 24.634C12.8776 24.6622 12.8886 24.689 12.9067 24.711C12.9248 24.733 12.9492 24.7492 12.9768 24.7575C13.0043 24.7658 13.0338 24.7659 13.0614 24.7577Z" fill="#003972"/>
<path d="M14.9482 24.7529C14.8604 24.739 14.7797 24.711 14.6943 24.6901C14.6049 24.6775 14.5219 24.6376 14.4569 24.576C14.4386 24.5531 14.4287 24.5248 14.4287 24.4957C14.4287 24.4666 14.4386 24.4384 14.4569 24.4154C14.5011 24.3761 14.5555 24.3494 14.6141 24.3383C14.6727 24.3272 14.7333 24.3322 14.7892 24.3526C14.9091 24.3745 15.0165 24.4392 15.0906 24.5341C15.1061 24.557 15.1145 24.5839 15.1147 24.6113C15.115 24.6388 15.1071 24.6658 15.092 24.6889C15.0769 24.7121 15.0553 24.7305 15.0298 24.7418C15.0043 24.7532 14.9759 24.757 14.9482 24.7529Z" fill="#003972"/>
<path d="M13.2061 27.0432C13.2536 27.0874 13.301 27.1502 13.3722 27.1572C13.4456 27.1554 13.5177 27.1379 13.5835 27.106C13.5835 27.106 13.5977 27.106 13.5835 27.106C13.5558 27.145 13.5176 27.1756 13.4732 27.1945C13.4287 27.2134 13.3798 27.2198 13.3319 27.2131C13.2919 27.2029 13.2559 27.1813 13.2285 27.151C13.201 27.1208 13.1833 27.0833 13.1776 27.0432C13.1824 27.0432 13.199 27.0432 13.2061 27.0432Z" fill="#003972"/>
<path d="M13.4103 26.4637C13.4608 26.5404 13.527 26.606 13.6046 26.6565C13.6822 26.707 13.7696 26.7412 13.8613 26.757C13.94 26.7671 14.0198 26.7671 14.0986 26.757H14.1461H14.1888C14.1994 26.7546 14.2089 26.7491 14.2162 26.7412C14.2234 26.7333 14.2279 26.7233 14.2292 26.7128C14.2292 26.7128 14.2292 26.7011 14.2292 26.6941V26.6778C14.2292 26.5289 14.2173 26.3008 14.2173 26.3008C14.2719 26.3287 14.5567 26.4521 14.5519 26.3753C14.5317 25.7023 14.4411 25.0332 14.2814 24.3784C14.28 24.3748 14.2776 24.3717 14.2744 24.3695C14.2712 24.3674 14.2674 24.3662 14.2636 24.3662C14.2597 24.3662 14.2559 24.3674 14.2527 24.3695C14.2495 24.3717 14.2471 24.3748 14.2458 24.3784C14.2624 24.9998 14.3882 25.6142 14.4143 26.2403C14.3135 26.1942 14.2063 26.1628 14.0962 26.1472C14.0725 26.1472 14.1342 26.5848 14.1271 26.6522C14.0024 26.665 13.8764 26.653 13.7565 26.617C13.6366 26.581 13.5253 26.5218 13.4293 26.4428C13.415 26.4358 13.3984 26.4474 13.4103 26.4637Z" fill="#003972"/>
<path d="M14.013 26.6917C13.9295 26.7952 13.8199 26.8754 13.695 26.9244C13.6257 26.9519 13.5494 26.9576 13.4766 26.9407C13.3176 26.8988 13.3129 26.7569 13.3413 26.6358C13.3575 26.5712 13.3814 26.5087 13.4125 26.4496C13.5814 26.5908 13.7917 26.6756 14.013 26.6917Z" fill="#003972"/>
<path d="M13.695 26.9337C13.6257 26.9612 13.5494 26.9669 13.4766 26.95C13.3176 26.9081 13.3129 26.7662 13.3413 26.6451C13.4248 26.6471 13.5052 26.6766 13.5694 26.729C13.6336 26.7814 13.6779 26.8536 13.695 26.9337Z" fill="#003972"/>
<path d="M15.0242 23.3564C14.9957 23.2703 14.9174 23.0539 14.8035 23.0422C14.6895 23.0306 14.5471 23.2471 14.2742 23.2959C13.8897 23.3681 13.2655 22.9049 12.7338 23.0003C12.2021 23.0958 11.8509 23.5496 11.6705 24.448C11.4901 25.3464 10.6974 26.0097 10.5431 25.3976C10.5364 25.3584 10.5277 25.3195 10.517 25.2812C10.517 24.4061 10.6309 23.5426 10.8564 23.1144C11.5684 21.7668 13.6808 21.5317 14.6801 22.5674C14.8582 22.7993 14.9763 23.07 15.0242 23.3564Z" fill="#003972"/>
<path d="M11.051 25.493C11.051 25.493 10.5502 24.4876 10.1016 24.6482C9.65299 24.8088 9.91882 26.1959 10.3817 26.4519C10.4387 26.4887 10.5028 26.5138 10.57 26.5256C10.6372 26.5374 10.7061 26.5358 10.7727 26.5208C10.8392 26.5058 10.9019 26.4777 10.9571 26.4383C11.0123 26.3988 11.0588 26.3489 11.0937 26.2913L11.051 25.493Z" fill="#D8DAE5"/>
<path d="M10.1847 25.0439C10.1847 25.0439 10.1847 25.0439 10.1847 25.0578C10.3304 25.1591 10.4527 25.2894 10.5435 25.4402C10.6343 25.591 10.6916 25.7589 10.7116 25.933C10.6969 25.8961 10.6742 25.8629 10.6451 25.8354C10.6161 25.808 10.5813 25.787 10.5432 25.774C10.5051 25.7609 10.4646 25.7561 10.4244 25.7599C10.3843 25.7636 10.3454 25.7758 10.3105 25.7956V25.8143C10.3744 25.8048 10.4397 25.8149 10.4975 25.8432C10.5552 25.8716 10.6027 25.9167 10.6333 25.9725C10.6826 26.0662 10.7223 26.1644 10.752 26.2658C10.752 26.2984 10.8208 26.2914 10.8137 26.2658C10.8944 25.8166 10.6499 25.1603 10.1847 25.0439Z" fill="#003972"/>
<path d="M15.3565 23.5637C15.3565 23.5637 15.0028 20.7359 12.4276 21.0245C9.85239 21.3131 10.1609 24.1479 10.1609 24.1479L15.3565 23.5637Z" fill="#0CBBE2"/>
<path d="M9.99832 24.3703L15.5822 23.7426L15.5351 23.3402L9.95128 23.9679L9.99832 24.3703Z" fill="#0CBBE2"/>
<path d="M12.7837 23.652L13.9467 23.5217L13.3486 20.7753L12.1855 20.9057L12.7837 23.652Z" fill="#0CBBE2"/>
<path d="M22.6739 39.5438C22.7214 38.9037 23.4643 39.325 23.4643 39.325C23.4643 39.325 22.5434 38.4638 22.8543 37.8215C23.1653 37.1791 24.0411 37.7447 24.098 37.7842C24.0506 37.7377 23.2246 36.9254 23.6043 36.311C23.9841 35.6965 24.7911 36.3645 24.8386 36.411C24.8053 36.3529 24.3995 35.5871 24.7958 35.1845C25.477 34.4863 26.8252 36.5809 27.5965 36.7695L28.7453 35.8571C28.5913 36.1982 28.5402 36.5754 28.5982 36.944C28.6646 37.477 28.7145 37.8331 28.5982 38.1496C28.5513 38.2943 28.4575 38.4201 28.3312 38.5079C28.2048 38.5957 28.0527 38.6407 27.898 38.6361C27.898 38.6361 28.311 39.1853 28.0285 39.6764C27.8814 39.9301 27.3402 39.9255 27.3402 39.9255C27.4273 40.0542 27.4764 40.204 27.4823 40.3584C27.4881 40.5128 27.4505 40.6658 27.3734 40.8006C27.1503 41.138 26.6424 41.0822 26.6424 41.0822C26.6424 41.0822 26.7373 41.6524 26.4051 41.9247C25.7073 42.4786 22.5719 40.9169 22.6739 39.5438Z" fill="#D8DAE5"/>
<path d="M27.8932 36.5996L28.7263 35.8781C28.7619 35.8595 28.7999 35.8386 28.8378 35.8223C30.1124 35.2125 31.7596 35.9735 31.0096 36.6508C30.4423 37.1652 29.1677 36.8417 28.6622 37.4515L27.8932 36.5996Z" fill="#D8DAE5"/>
<path d="M27.352 39.9394C27.3663 39.9394 27.352 39.965 27.352 39.9627C26.0258 39.6481 24.8576 38.8798 24.0576 37.7959C24.0315 37.7563 24.0576 37.6958 24.0814 37.7377C24.6486 38.4475 26.2982 39.5228 27.352 39.9394Z" fill="#003972"/>
<path d="M24.81 36.3133C25.6028 37.3653 26.659 38.0635 27.8481 38.629C27.8623 38.629 27.8481 38.657 27.8481 38.6546C27.1906 38.5336 26.4691 38.0961 25.9493 37.7097C25.4491 37.3606 25.0513 36.8887 24.7958 36.3412C24.7626 36.3179 24.7934 36.29 24.81 36.3133Z" fill="#003972"/>
<path d="M26.6542 43.5027L21.3281 95.3088H20.0298L25.2254 44.7711H11.7108L2.3118 95.3088H0.999268L10.6332 43.5027H26.6542Z" fill="#003972"/>
<path d="M25.2729 54.6393H9.73376V55.9055H25.2729V54.6393Z" fill="#003972"/>
<path d="M23.1819 64.9127H7.6427V66.1788H23.1819V64.9127Z" fill="#003972"/>
<path d="M22.1565 75.1859H5.41638V76.452H22.1565V75.1859Z" fill="#003972"/>
<path d="M21.3637 85.459H3.70264V86.7252H21.3637V85.459Z" fill="#003972"/>
<g opacity="0.5">
<path d="M26.6542 43.5027L21.3281 95.3088H20.0298L25.2254 44.7711H11.7108L2.3118 95.3088H0.999268L10.6332 43.5027H26.6542Z" fill="#003972"/>
<path d="M25.2728 54.6393H9.73364V55.9055H25.2728V54.6393Z" fill="#003972"/>
<path d="M23.1818 64.9127H7.64258V66.1788H23.1818V64.9127Z" fill="#003972"/>
<path d="M22.1564 75.1859H5.41626V76.452H22.1564V75.1859Z" fill="#003972"/>
<path d="M21.3637 85.4591H3.70264V86.7252H21.3637V85.4591Z" fill="#003972"/>
</g>
<path d="M37.4774 99.461H36.1625L25.591 44.7711H12.0788L18.4444 99.461H17.1461L10.6333 43.5027H26.6614L37.4774 99.461Z" fill="#003972"/>
<path opacity="0.2" d="M37.4774 99.461H36.1625L25.591 44.7711H12.0788L18.4444 99.461H17.1461L10.6333 43.5027H26.6614L37.4774 99.461Z" fill="#003972"/>
<path d="M27.288 41.9922H9.77649V43.5027H27.288V41.9922Z" fill="#003972"/>
<path opacity="0.2" d="M27.288 41.9922H9.77649V43.5027H27.288V41.9922Z" fill="#003972"/>
</svg>
