<svg width="429" height="283" viewBox="0 0 429 283" fill="none" xmlns="http://www.w3.org/2000/svg">
<path d="M0 0H429V283H0V0Z" fill="#003972"/>
<mask id="mask0_1667_54189" style="mask-type:alpha" maskUnits="userSpaceOnUse" x="0" y="0" width="428" height="283">
<rect width="428" height="283" fill="#D9D9D9"/>
</mask>
<g mask="url(#mask0_1667_54189)">
<g style="mix-blend-mode:luminosity" opacity="0.15">
<path d="M352.398 192.062H475.555C477.007 192.062 478.399 192.638 479.426 193.663C480.452 194.687 481.029 196.077 481.029 197.526V209.603H352.398V192.281V192.062Z" fill="#696F8C"/>
<path opacity="0.1" d="M352.398 192.062H475.555C477.007 192.062 478.399 192.638 479.426 193.663C480.452 194.687 481.029 196.077 481.029 197.526V209.603H352.398V192.281V192.062Z" fill="#FAFBFF"/>
<path d="M316.798 142.614L399.567 99H467.049C467.049 99 495.221 134.873 485.994 163.822L422.989 198.277L330.447 199.858C330.447 199.858 306.971 173.744 316.798 142.614Z" fill="#696F8C"/>
<path opacity="0.3" d="M316.798 142.614L399.567 99H467.049C467.049 99 495.221 134.873 485.994 163.822L422.989 198.277L330.447 199.858C330.447 199.858 306.971 173.744 316.798 142.614Z" fill="#FAFBFF"/>
<path d="M401.203 218.373H390.267C382.83 218.373 376.76 228.371 376.76 240.786C376.76 253.201 382.83 263.199 390.267 263.199H401.203C408.695 263.199 414.765 253.146 414.765 240.786C414.765 228.426 408.695 218.373 401.203 218.373Z" fill="#696F8C"/>
<path opacity="0.2" d="M414.765 240.786C414.765 253.146 408.719 263.199 401.257 263.199C393.795 263.199 387.967 253.146 387.967 240.786C387.967 228.426 394.012 218.373 401.42 218.373C408.828 218.373 414.765 228.371 414.765 240.786Z" fill="#FAFBFF"/>
<path opacity="0.3" d="M407.943 240.813C407.943 246.27 405.219 251.018 401.853 251.018C398.487 251.018 395.762 246.434 395.762 240.813C395.762 235.192 398.487 230.554 401.853 230.554C405.219 230.554 407.943 235.138 407.943 240.813Z" fill="#FAFBFF"/>
<path d="M501.493 208.141H358.732V241.273H501.493V208.141Z" fill="#696F8C"/>
<path d="M269.685 218.373H258.733C251.23 218.373 245.207 228.371 245.207 240.786C245.207 253.201 251.23 263.199 258.733 263.199H269.685C277.187 263.199 283.211 253.146 283.211 240.786C283.211 228.426 277.187 218.373 269.685 218.373Z" fill="#696F8C"/>
<path opacity="0.2" d="M283.211 240.786C283.211 253.146 277.195 263.199 269.702 263.199C262.21 263.199 256.413 253.146 256.413 240.786C256.413 228.426 262.429 218.373 269.921 218.373C277.414 218.373 283.211 228.371 283.211 240.786Z" fill="#FAFBFF"/>
<path opacity="0.3" d="M276.877 240.813C276.877 246.27 274.031 251.018 270.571 251.018C267.111 251.018 264.208 246.434 264.208 240.813C264.208 235.192 267.055 230.554 270.571 230.554C274.086 230.554 276.877 235.138 276.877 240.813Z" fill="#FAFBFF"/>
<path d="M307.527 126.772H302.452H247.836L236.923 180.084V236.401H291.54H307.527H362.143V126.772H307.527Z" fill="#C1C4D6"/>
<path opacity="0.3" d="M307.527 126.772H302.452H247.836L236.923 180.084V236.401H291.54H307.527H362.143V126.772H307.527Z" fill="#FAFBFF"/>
<path opacity="0.2" d="M362.143 236.401H318.779V180.084L329.702 126.772H362.143V236.401Z" fill="#474D66"/>
<path d="M241.309 174.522H315.933L324.626 134.568H249.728L241.309 174.522Z" fill="#696F8C"/>
<path d="M324.626 174.522L333.283 134.568H356.296V167.103H349.009L347.091 174.522H324.626Z" fill="#696F8C"/>
<path d="M250.566 216.911C250.566 222.386 248.101 226.656 244.963 226.656C241.825 226.656 239.36 222.276 239.36 216.911C239.36 211.546 241.769 207.166 244.963 207.166C248.157 207.166 250.566 211.546 250.566 216.911Z" fill="#FAFBFF"/>
<path d="M313.419 216.911C313.419 222.386 311.115 226.656 308.06 226.656C305.005 226.656 302.7 222.276 302.7 216.911C302.7 211.546 305.005 207.166 308.06 207.166C311.115 207.166 313.419 211.546 313.419 216.911Z" fill="#FAFBFF"/>
<path d="M332.909 230.554H234V242.247H332.909V230.554Z" fill="#696F8C"/>
<path d="M352.028 218.373H341.075C333.573 218.373 327.549 228.371 327.549 240.786C327.549 253.201 333.573 263.199 341.075 263.199H352.028C359.475 263.199 365.554 253.146 365.554 240.786C365.554 228.426 359.475 218.373 352.028 218.373Z" fill="#696F8C"/>
<path opacity="0.2" d="M365.554 240.786C365.554 253.146 359.496 263.199 352.073 263.199C344.65 263.199 338.756 253.146 338.756 240.786C338.756 228.426 344.759 218.373 352.237 218.373C359.714 218.373 365.554 228.371 365.554 240.786Z" fill="#FAFBFF"/>
<path opacity="0.3" d="M358.732 240.813C358.732 246.27 355.996 251.018 352.669 251.018C349.342 251.018 346.552 246.434 346.552 240.813C346.552 235.192 349.288 230.554 352.669 230.554C356.049 230.554 358.732 235.138 358.732 240.813Z" fill="#FAFBFF"/>
<path opacity="0.3" d="M332.909 230.554H234V242.247H332.909V230.554Z" fill="#FAFBFF"/>
<path opacity="0.2" d="M399.66 99C399.66 99 420.463 104.458 430.182 138.737C433.093 148.644 433.964 159.039 432.744 169.293C431.524 179.547 428.238 189.447 423.084 198.396C431.145 179.398 432.493 158.221 426.906 138.355C417.515 104.895 399.66 99 399.66 99Z" fill="#474D66"/>
<path opacity="0.2" d="M295.586 209.115H256.219C254.981 209.115 253.977 210.141 253.977 211.406V224.366C253.977 225.63 254.981 226.656 256.219 226.656H295.586C296.824 226.656 297.828 225.63 297.828 224.366V211.406C297.828 210.141 296.824 209.115 295.586 209.115Z" fill="#474D66"/>
</g>
<g style="mix-blend-mode:luminosity" opacity="0.04">
<path d="M382 63.0241C382 62.2102 382.38 61.4295 383.058 60.853C383.735 60.2766 384.654 59.9514 385.614 59.9488C385.967 59.9483 386.317 59.9946 386.653 60.0859C386.601 59.7613 386.574 59.4341 386.572 59.1065C386.572 58.253 386.771 57.4078 387.156 56.6194C387.542 55.8309 388.107 55.1146 388.819 54.5116C389.531 53.9085 390.376 53.4304 391.306 53.1046C392.236 52.7789 393.233 52.6119 394.239 52.6131C394.711 52.6141 395.183 52.6501 395.648 52.7209C396.404 51.6695 397.543 50.8553 398.893 50.4008C400.243 49.9463 401.73 49.8763 403.131 50.2012C404.531 50.5262 405.769 51.2285 406.659 52.2023C407.548 53.1761 408.04 54.3687 408.06 55.6003H408.176C409.766 55.6587 411.269 56.2357 412.37 57.2111C413.471 58.1864 414.086 59.4847 414.086 60.8352C414.086 62.1856 413.471 63.4839 412.37 64.4593C411.269 65.4346 409.766 66.0117 408.176 66.07H385.522C384.584 66.0473 383.694 65.7173 383.037 65.1493C382.38 64.5813 382.009 63.8196 382 63.0241Z" fill="#EDEFF5"/>
</g>
<g style="mix-blend-mode:luminosity" opacity="0.04">
<path d="M313 40.4746C312.991 39.6175 312.748 38.7737 312.29 38.0095C311.831 37.2452 311.17 36.5811 310.358 36.0692C309.546 35.5574 308.605 35.2116 307.609 35.0591C306.613 34.9065 305.588 34.9513 304.616 35.1899C304.708 34.6286 304.755 34.0628 304.758 33.4962C304.755 31.7757 304.304 30.077 303.437 28.5207C302.571 26.9644 301.31 25.5887 299.745 24.4915C298.18 23.3942 296.349 22.6023 294.381 22.1719C292.414 21.7415 290.359 21.6832 288.362 22.0012C287.021 20.0805 284.973 18.5859 282.531 17.747C280.09 16.9082 277.39 16.7717 274.848 17.3584C272.306 17.9452 270.062 19.2227 268.461 20.9946C266.86 22.7665 265.99 24.9346 265.987 27.1656H265.779C262.889 27.2423 260.149 28.2681 258.137 30.0258C256.125 31.7835 255 34.1351 255 36.5828C255 39.0305 256.125 41.3821 258.137 43.1398C260.149 44.8975 262.889 45.9233 265.779 46H306.627C308.329 45.9592 309.945 45.3599 311.134 44.3289C312.323 43.2978 312.992 41.9157 313 40.4746Z" fill="#EDEFF5"/>
</g>
<g style="mix-blend-mode:luminosity" opacity="0.04">
<path d="M225.551 210.478H156.823V263.991H225.551V210.478Z" fill="#E6E8F0"/>
<path d="M212.354 225.312H221.149V217.152H212.354V225.312Z" fill="#FAFBFF"/>
<path d="M195.31 225.312H204.106V217.152H195.31V225.312Z" fill="#FAFBFF"/>
<path d="M178.268 225.312H187.064V217.152H178.268V225.312Z" fill="#FAFBFF"/>
<path d="M161.226 225.312H170.021V217.152H161.226V225.312Z" fill="#FAFBFF"/>
<path d="M212.354 240.147H221.149V231.987H212.354V240.147Z" fill="#FAFBFF"/>
<path d="M195.31 240.147H204.106V231.987H195.31V240.147Z" fill="#FAFBFF"/>
<path d="M178.268 240.147H187.064V231.987H178.268V240.147Z" fill="#FAFBFF"/>
<path d="M161.226 240.147H170.021V231.987H161.226V240.147Z" fill="#FAFBFF"/>
<path d="M212.354 254.981H221.149V246.821H212.354V254.981Z" fill="#FAFBFF"/>
<path d="M195.31 254.981H204.106V246.821H195.31V254.981Z" fill="#FAFBFF"/>
<path d="M178.268 254.981H187.064V246.821H178.268V254.981Z" fill="#FAFBFF"/>
<path d="M161.226 254.981H170.021V246.821H161.226V254.981Z" fill="#FAFBFF"/>
<path d="M173.541 117.555V97.5006H171.34V117.555H173.541Z" fill="#F4F6FA"/>
<path d="M223.342 117.555V97.5006H221.141V117.555H223.342Z" fill="#F4F6FA"/>
<path d="M198.446 117.555V97.5006H196.245V117.555H198.446Z" fill="#F4F6FA"/>
<path d="M225.551 115.513H169.122V117.555H225.551V115.513Z" fill="#EDEFF5"/>
<path d="M225.551 96.4757H169.122V98.5177H225.551V96.4757Z" fill="#EDEFF5"/>
<path d="M173.532 98.5256V78.4711H171.331V98.5256H173.532Z" fill="#F4F6FA"/>
<path d="M223.342 98.5176V78.4631H221.141V98.5176H223.342Z" fill="#F4F6FA"/>
<path d="M198.437 98.5256V78.4711H196.236V98.5256H198.437Z" fill="#F4F6FA"/>
<path d="M225.551 77.4461H169.122V79.4881H225.551V77.4461Z" fill="#EDEFF5"/>
<path d="M225.551 117.396H156.823V210.478H225.551V117.396Z" fill="#FAFBFF"/>
<path d="M221.157 121.48H195.311V144.475H221.157V121.48Z" fill="#E6E8F0"/>
<path d="M187.072 121.48H161.225V144.475H187.072V121.48Z" fill="#E6E8F0"/>
<path d="M221.157 151.149H195.311V174.143H221.157V151.149Z" fill="#E6E8F0"/>
<path d="M187.072 151.149H161.225V174.143H187.072V151.149Z" fill="#E6E8F0"/>
<path d="M221.157 180.817H195.311V203.812H221.157V180.817Z" fill="#E6E8F0"/>
<path d="M187.072 180.817H161.225V203.812H187.072V180.817Z" fill="#E6E8F0"/>
<path d="M78.9692 158.892H14.2307V264H78.9692V158.892Z" fill="#F4F6FA"/>
<path d="M66.8731 144.506V159.102H61.7346H31.9139H26.7839V144.506H66.8731Z" fill="#F4F6FA"/>
<path d="M66.8643 170.695H75.1973V162.964H66.8643V170.695Z" fill="#FAFBFF"/>
<path d="M50.7295 170.695H59.0625V162.964H50.7295V170.695Z" fill="#FAFBFF"/>
<path d="M34.5859 170.695H42.9189V162.964H34.5859V170.695Z" fill="#FAFBFF"/>
<path d="M18.4595 170.695H26.7925V162.964H18.4595V170.695Z" fill="#FAFBFF"/>
<path d="M66.8643 184.735H75.1973V177.004H66.8643V184.735Z" fill="#FAFBFF"/>
<path d="M50.7295 184.735H59.0625V177.004H50.7295V184.735Z" fill="#FAFBFF"/>
<path d="M34.5859 184.735H42.9189V177.004H34.5859V184.735Z" fill="#FAFBFF"/>
<path d="M18.4595 184.735H26.7925V177.004H18.4595V184.735Z" fill="#FAFBFF"/>
<path d="M66.8643 198.79H75.1973V191.059H66.8643V198.79Z" fill="#FAFBFF"/>
<path d="M50.7295 198.79H59.0625V191.059H50.7295V198.79Z" fill="#FAFBFF"/>
<path d="M34.5859 198.79H42.9189V191.059H34.5859V198.79Z" fill="#FAFBFF"/>
<path d="M50.7295 158.554H59.0625V150.823H50.7295V158.554Z" fill="#FAFBFF"/>
<path d="M34.5859 158.554H42.9189V150.823H34.5859V158.554Z" fill="#FAFBFF"/>
<path d="M18.4595 198.79H26.7925V191.059H18.4595V198.79Z" fill="#FAFBFF"/>
<path d="M66.8643 212.83H75.1973V205.099H66.8643V212.83Z" fill="#FAFBFF"/>
<path d="M50.7295 212.83H59.0625V205.099H50.7295V212.83Z" fill="#FAFBFF"/>
<path d="M34.5859 212.83H42.9189V205.099H34.5859V212.83Z" fill="#FAFBFF"/>
<path d="M18.4595 212.83H26.7925V205.099H18.4595V212.83Z" fill="#FAFBFF"/>
<path d="M66.8643 226.87H75.1973V219.139H66.8643V226.87Z" fill="#FAFBFF"/>
<path d="M50.7295 226.87H59.0625V219.139H50.7295V226.87Z" fill="#FAFBFF"/>
<path d="M34.5859 226.87H42.9189V219.139H34.5859V226.87Z" fill="#FAFBFF"/>
<path d="M18.4595 226.87H26.7925V219.139H18.4595V226.87Z" fill="#FAFBFF"/>
<path d="M66.8643 240.925H75.1973V233.194H66.8643V240.925Z" fill="#FAFBFF"/>
<path d="M50.7295 240.925H59.0625V233.194H50.7295V240.925Z" fill="#FAFBFF"/>
<path d="M34.5859 240.925H42.9189V233.194H34.5859V240.925Z" fill="#FAFBFF"/>
<path d="M18.4595 240.925H26.7925V233.194H18.4595V240.925Z" fill="#FAFBFF"/>
<path d="M66.8643 254.965H75.1973V247.234H66.8643V254.965Z" fill="#FAFBFF"/>
<path d="M50.7295 254.965H59.0625V247.234H50.7295V254.965Z" fill="#FAFBFF"/>
<path d="M34.5859 254.965H42.9189V247.234H34.5859V254.965Z" fill="#FAFBFF"/>
<path d="M18.4595 254.965H26.7925V247.234H18.4595V254.965Z" fill="#FAFBFF"/>
<path d="M80.7131 157.601H12.9443V159.174H80.7131V157.601Z" fill="#EDEFF5"/>
<path d="M28.4883 144.506V129.052H26.7926V144.506H28.4883Z" fill="#F4F6FA"/>
<path d="M66.873 144.506V129.052H65.1773V144.506H66.873Z" fill="#F4F6FA"/>
<path d="M47.6807 144.506V129.052H45.9849V144.506H47.6807Z" fill="#F4F6FA"/>
<path d="M68.569 142.933H25.0798V144.506H68.569V142.933Z" fill="#EDEFF5"/>
<path d="M68.569 128.266H25.0798V129.839H68.569V128.266Z" fill="#EDEFF5"/>
<path d="M28.4883 129.839V114.385H26.7926V129.839H28.4883Z" fill="#F4F6FA"/>
<path d="M66.873 129.839V114.385H65.1773V129.839H66.873Z" fill="#F4F6FA"/>
<path d="M47.6807 129.839V114.385H45.9849V129.839H47.6807Z" fill="#F4F6FA"/>
<path d="M68.569 113.598H25.0798V115.171H68.569V113.598Z" fill="#EDEFF5"/>
<path d="M28.4883 115.172V99.7175H26.7926V115.172H28.4883Z" fill="#F4F6FA"/>
<path d="M66.873 115.172V99.7175H65.1773V115.172H66.873Z" fill="#F4F6FA"/>
<path d="M47.6807 115.171V99.7174H45.9849V115.171H47.6807Z" fill="#F4F6FA"/>
<path d="M68.569 98.9229H25.0798V100.496H68.569V98.9229Z" fill="#EDEFF5"/>
<path d="M28.4883 100.504V85.05H26.7926V100.504H28.4883Z" fill="#F4F6FA"/>
<path d="M66.8647 100.504V85.05H65.169V100.504H66.8647Z" fill="#F4F6FA"/>
<path d="M47.6807 100.504V85.05H45.9849V100.504H47.6807Z" fill="#F4F6FA"/>
<path d="M68.569 84.2554H25.0798V85.8287H68.569V84.2554Z" fill="#EDEFF5"/>
<path d="M167.985 139.185H90.0962V264H167.985V139.185Z" fill="#F4F6FA"/>
<path d="M152.781 122.052V139.389H146.675H111.227H105.129V122.052H152.781Z" fill="#F4F6FA"/>
<path d="M152.772 153.175H162.681V143.99H152.772V153.175Z" fill="#FAFBFF"/>
<path d="M133.588 153.175H143.497V143.99H133.588V153.175Z" fill="#FAFBFF"/>
<path d="M114.413 153.175H124.313V143.99H114.413V153.175Z" fill="#FAFBFF"/>
<path d="M95.2291 153.175H105.129V143.99H95.2291V153.175Z" fill="#FAFBFF"/>
<path d="M152.772 169.876H162.681V160.683H152.772V169.876Z" fill="#FAFBFF"/>
<path d="M133.588 169.876H143.497V160.683H133.588V169.876Z" fill="#FAFBFF"/>
<path d="M114.413 169.876H124.313V160.683H114.413V169.876Z" fill="#FAFBFF"/>
<path d="M95.2291 169.876H105.129V160.683H95.2291V169.876Z" fill="#FAFBFF"/>
<path d="M152.772 186.57H162.681V177.377H152.772V186.57Z" fill="#FAFBFF"/>
<path d="M133.588 186.57H143.497V177.377H133.588V186.57Z" fill="#FAFBFF"/>
<path d="M114.413 186.57H124.313V177.377H114.413V186.57Z" fill="#FAFBFF"/>
<path d="M133.588 138.746H143.497V129.561H133.588V138.746Z" fill="#FAFBFF"/>
<path d="M114.413 138.746H124.313V129.561H114.413V138.746Z" fill="#FAFBFF"/>
<path d="M95.2291 186.57H105.129V177.377H95.2291V186.57Z" fill="#FAFBFF"/>
<path d="M152.772 203.263H162.681V194.078H152.772V203.263Z" fill="#FAFBFF"/>
<path d="M133.588 203.263H143.497V194.078H133.588V203.263Z" fill="#FAFBFF"/>
<path d="M114.413 203.263H124.313V194.078H114.413V203.263Z" fill="#FAFBFF"/>
<path d="M95.2291 203.263H105.129V194.078H95.2291V203.263Z" fill="#FAFBFF"/>
<path d="M152.772 219.965H162.681V210.772H152.772V219.965Z" fill="#FAFBFF"/>
<path d="M133.588 219.965H143.497V210.772H133.588V219.965Z" fill="#FAFBFF"/>
<path d="M114.413 219.965H124.313V210.772H114.413V219.965Z" fill="#FAFBFF"/>
<path d="M95.2291 219.965H105.129V210.772H95.2291V219.965Z" fill="#FAFBFF"/>
<path d="M152.772 236.659H162.681V227.466H152.772V236.659Z" fill="#FAFBFF"/>
<path d="M133.588 236.659H143.497V227.466H133.588V236.659Z" fill="#FAFBFF"/>
<path d="M114.413 236.659H124.313V227.466H114.413V236.659Z" fill="#FAFBFF"/>
<path d="M95.2291 236.659H105.129V227.466H95.2291V236.659Z" fill="#FAFBFF"/>
<path d="M152.772 253.352H162.681V244.159H152.772V253.352Z" fill="#FAFBFF"/>
<path d="M133.588 253.352H143.497V244.159H133.588V253.352Z" fill="#FAFBFF"/>
<path d="M114.413 253.352H124.313V244.159H114.413V253.352Z" fill="#FAFBFF"/>
<path d="M95.2291 253.352H105.129V244.159H95.2291V253.352Z" fill="#FAFBFF"/>
<path d="M169.233 137.618H88.6777V139.493H169.233V137.618Z" fill="#EDEFF5"/>
<path d="M107.142 122.06V103.682H105.121V122.06H107.142Z" fill="#F4F6FA"/>
<path d="M152.772 122.052V103.674H150.751V122.052H152.772Z" fill="#F4F6FA"/>
<path d="M129.958 122.052V103.674H127.936V122.052H129.958Z" fill="#F4F6FA"/>
<path d="M154.802 120.177H103.108V122.052H154.802V120.177Z" fill="#EDEFF5"/>
<path d="M154.802 102.737H103.108V104.612H154.802V102.737Z" fill="#EDEFF5"/>
<path d="M107.151 104.612V86.2339H105.13V104.612H107.151Z" fill="#F4F6FA"/>
<path d="M152.772 104.612V86.2339H150.751V104.612H152.772Z" fill="#F4F6FA"/>
<path d="M129.966 104.612V86.2339H127.945V104.612H129.966Z" fill="#F4F6FA"/>
<path d="M154.802 85.3043H103.108V87.1795H154.802V85.3043Z" fill="#EDEFF5"/>
<path d="M107.151 87.1795V68.8015H105.13V87.1795H107.151Z" fill="#F4F6FA"/>
<path d="M152.781 87.1794V68.8015H150.76V87.1794H152.781Z" fill="#F4F6FA"/>
<path d="M129.966 87.1795V68.8015H127.945V87.1795H129.966Z" fill="#F4F6FA"/>
<path d="M154.802 67.8638H103.108V69.739H154.802V67.8638Z" fill="#EDEFF5"/>
<path d="M152.772 69.7389V51.361H150.751V69.7389H152.772Z" fill="#F4F6FA"/>
<path d="M129.957 69.739V51.361H127.936V69.739H129.957Z" fill="#F4F6FA"/>
<path d="M115.86 91.764V87.8707C115.844 87.7578 115.785 87.6542 115.693 87.5792C115.6 87.5041 115.482 87.4628 115.359 87.4628C115.237 87.4628 115.118 87.5041 115.026 87.5792C114.934 87.6542 114.874 87.7578 114.858 87.8707V92.1454C114.861 92.269 114.914 92.3871 115.009 92.4746C115.103 92.562 115.23 92.6121 115.364 92.6141C116.948 92.7572 118.096 94.5846 116.785 95.7923C116.497 96.0328 116.141 96.1925 115.758 96.2531C115.376 96.3137 114.983 96.2726 114.624 96.1346C114.266 95.9967 113.957 95.7675 113.733 95.4735C113.51 95.1795 113.38 94.8328 113.36 94.4734C113.291 93.8854 112.289 93.8775 112.358 94.4734C112.606 96.7776 115.518 98.3111 117.496 96.4518C119.337 94.7276 118.07 92.2804 115.86 91.764Z" fill="#F4F6FA"/>
<path d="M42.105 63.8196V72.2577L32.5131 63.3826L32.042 63.8196H31.374V143.91H43.4153V63.8196H42.105ZM32.6844 124.921L41.1116 132.739H32.6844V124.921ZM32.6844 105.057L41.1116 112.875H32.6844V105.057ZM32.6844 85.193L41.1116 93.0194H32.6844V85.193ZM32.6844 65.3292L41.1116 73.1476H32.6844V65.3292ZM41.1116 74.3871L32.6844 82.1896V74.3712L41.1116 74.3871ZM42.0622 75.2611V83.0795H33.6264L42.0622 75.2611ZM41.1116 94.2509L32.6844 102.061V94.2351L41.1116 94.2509ZM42.0622 95.1329V102.951H33.6264L42.0622 95.1329ZM41.1116 114.123L32.6844 121.925V114.107L41.1116 114.123ZM42.0622 114.997V122.815H33.6264L42.0622 114.997ZM41.1116 133.994L32.6844 141.797V133.979L41.1116 133.994ZM33.6264 142.687L42.0622 134.868V142.687H33.6264ZM42.0622 131.881L33.6264 124.055H42.105L42.0622 131.881ZM42.0622 112.017L33.6264 104.199H42.105L42.0622 112.017ZM42.0622 92.1533L33.6264 84.3349H42.105L42.0622 92.1533Z" fill="#E6E8F0"/>
<path d="M32.6846 37.4325V52.9581H34.0206V46.9989L40.872 53.3553L41.343 52.9183H42.1052V37.4325H32.6846ZM39.7758 38.672L34.0206 44.0114V38.672H39.7758ZM40.7178 51.4643L34.9969 46.109H40.7435L40.7178 51.4643ZM34.9712 44.8854L40.7178 39.546V44.8854H34.9712Z" fill="#E6E8F0"/>
<path d="M10.7262 63.8196H-5.33179V78.7174H10.7262V63.8196Z" fill="#D8DAE5"/>
<path d="M115.578 85.3122H114.687V56.6607L39.8957 33.6584H34.9542L-5.0922 56.7163L-5.56323 56.0171L34.6972 32.832H40.0413L40.1098 32.8479L115.578 56.0647V85.3122Z" fill="#D8DAE5"/>
<path d="M106.431 64.4631H107.356L116.777 55.723H-6V64.4154H106.431V64.4631ZM107.767 56.9864H113.522L107.767 62.3178V56.9864ZM-4.66398 63.1998V57.8604L1.09119 63.1998H-4.66398ZM2.03326 62.3178L-3.72191 56.9864H2.03326V62.3178ZM3.36928 56.9864H9.12444L3.36928 62.3178V56.9864ZM10.0665 63.1998H4.31133L10.0665 57.8604V63.1998ZM11.4025 63.1998V57.8604L17.1491 63.1998H11.4025ZM18.1255 62.3178L12.3788 56.9864H18.1255V62.3178ZM19.4615 56.9864H25.2166L19.4615 62.3178V56.9864ZM26.1587 63.1998H20.4121L26.1587 57.8604V63.1998ZM27.4947 63.1998V57.8604L33.2499 63.1998H27.4947ZM34.192 62.3178L28.4025 56.9864H34.1577L34.192 62.3178ZM35.528 56.9864H41.2489L35.5023 62.3178L35.528 56.9864ZM42.2252 63.1998H36.47L42.2252 57.8604V63.1998ZM43.5612 63.1998V57.8604L49.3078 63.1998H43.5612ZM50.2499 62.3178L44.5033 56.9864H50.2499V62.3178ZM51.5859 56.9864H57.3411L51.526 62.3178L51.5859 56.9864ZM58.2831 63.1998H52.528L58.2831 57.8604V63.1998ZM59.6192 63.1998V57.8604L65.3744 63.1998H59.6192ZM66.3164 62.3178L60.5612 56.9864H66.3164V62.3178ZM67.6524 56.9864H73.399L67.6524 62.3178V56.9864ZM74.3496 63.1998H68.5945L74.3496 57.8604V63.1998ZM75.6771 63.1998V57.8604L81.4323 63.1998H75.6771ZM82.3572 62.3178L76.6106 56.9864H82.3572V62.3178ZM83.6932 56.9864H89.4484L83.6932 62.3178V56.9864ZM90.3905 63.1998H84.6353L90.3905 57.8604V63.1998ZM91.7265 56.9864H97.4731L91.7265 62.3178V56.9864ZM98.4237 63.1998H92.6343L98.3895 57.8604L98.4237 63.1998ZM99.7598 63.1998V57.8604L105.506 63.1998H99.7598ZM100.702 56.9864H106.448V62.3178L100.702 56.9864Z" fill="#E6E8F0"/>
<path d="M49.3589 67.1964H24.6597L25.5589 57.5585C25.6768 56.3023 26.2982 55.1329 27.3003 54.2811C28.3024 53.4294 29.6124 52.9572 30.9715 52.958H42.7388C44.0709 52.9576 45.3567 53.4115 46.3515 54.2334C47.3464 55.0553 47.9808 56.1878 48.1342 57.4155L49.3589 67.1964Z" fill="#E6E8F0"/>
<path d="M33.3867 56.9626H28.6421V61.3644H33.3867V56.9626Z" fill="#FAFBFF"/>
<path d="M39.382 56.9626H34.6375V61.3644H39.382V56.9626Z" fill="#FAFBFF"/>
<path d="M45.3772 56.9626H40.6326V61.3644H45.3772V56.9626Z" fill="#FAFBFF"/>
<path d="M37.395 38.0602C39.1829 38.0602 40.6323 36.7155 40.6323 35.0568C40.6323 33.398 39.1829 32.0533 37.395 32.0533C35.6071 32.0533 34.1577 33.398 34.1577 35.0568C34.1577 36.7155 35.6071 38.0602 37.395 38.0602Z" fill="#D8DAE5"/>
<path d="M115.364 90.4371C114.63 90.4371 113.927 90.1667 113.408 89.6854C112.889 89.2041 112.598 88.5513 112.598 87.8707V85.3122H118.13V87.8707C118.13 88.5513 117.839 89.2041 117.32 89.6854C116.801 90.1667 116.098 90.4371 115.364 90.4371Z" fill="#D8DAE5"/>
<path d="M120.314 71.0738V67.7446C120.314 67.6393 120.359 67.5382 120.44 67.4637C120.52 67.3892 120.629 67.3474 120.742 67.3474C120.856 67.3474 120.965 67.3892 121.045 67.4637C121.125 67.5382 121.171 67.6393 121.171 67.7446V71.3996C121.168 71.5043 121.123 71.6042 121.043 71.6782C120.963 71.7523 120.855 71.7948 120.742 71.7969C119.389 71.924 118.404 73.4813 119.526 74.5222C119.773 74.7308 120.078 74.8701 120.406 74.9235C120.735 74.977 121.073 74.9426 121.381 74.8242C121.69 74.7058 121.955 74.5084 122.147 74.2551C122.339 74.0018 122.448 73.7031 122.464 73.3939C122.524 72.8854 123.38 72.8854 123.32 73.3939C123.106 75.3644 120.622 76.6754 118.927 75.0863C117.231 73.4972 118.43 71.5346 120.314 71.0738Z" fill="#F4F6FA"/>
<path d="M182.276 47.1658V115.672H192.553V47.1658H191.98L191.577 46.7924L183.415 54.3803V47.1658H182.276ZM191.44 106.114H184.272L191.483 99.4235L191.44 106.114ZM191.44 89.1182H184.272L191.483 82.4281L191.44 89.1182ZM191.44 72.1227H184.272L191.483 65.4405L191.44 72.1227ZM191.44 55.1352H184.272L191.483 48.445L191.44 55.1352ZM191.44 56.1919V62.882L184.272 56.1919H191.44ZM190.626 63.6289H183.415V56.9388L190.626 63.6289ZM191.44 73.1636V79.8458L184.272 73.1874L191.44 73.1636ZM190.626 80.6006H183.415V73.9184L190.626 80.6006ZM191.44 90.1352V96.8253L184.272 90.1749L191.44 90.1352ZM190.626 97.5722H183.415V90.89L190.626 97.5722ZM191.44 107.107V113.797L184.272 107.17L191.44 107.107ZM183.415 114.607V107.917L190.618 114.607H183.415ZM183.415 98.6767H190.618L183.415 105.367V98.6767ZM183.415 81.6812H190.618L183.415 88.3713V81.6812ZM183.415 64.6857H190.618L183.415 71.3758V64.6857Z" fill="#F4F6FA"/>
<path d="M183.416 24.6004V37.8774H183.989L184.392 38.2508L190.267 32.7843V37.8774H191.406V24.6004H183.416ZM190.267 25.6572V30.2179L185.351 25.6492L190.267 25.6572ZM184.537 32.0136H189.462L184.563 36.5743L184.537 32.0136ZM184.537 30.9568V26.412L189.488 31.0124L184.537 30.9568Z" fill="#F4F6FA"/>
<path d="M210.239 59.9103H223.976V47.1657H210.239V59.9103Z" fill="#E6E8F0"/>
<path d="M120.562 65.5516H121.324V41.0476L185.291 21.3666H189.521L223.77 41.0953L224.172 40.4915L189.735 20.6594H185.171L185.111 20.6833L120.562 40.5391V65.5516Z" fill="#D8DAE5"/>
<path d="M128.381 47.6981H224.523V40.2611H119.56L127.593 47.714H128.381V47.6981ZM127.242 45.8865L122.318 41.3417H127.242V45.8865ZM218.486 46.6334L223.401 42.0727V46.6334H218.486ZM217.672 41.3417H222.596L217.672 45.8865V41.3417ZM216.533 45.9024L211.617 41.3417H216.533V45.9024ZM210.803 42.0886L215.728 46.6493H210.821L210.803 42.0886ZM204.749 46.6493L209.664 42.0886V46.6493H204.749ZM203.969 41.3417H208.894L203.969 45.8865V41.3417ZM202.83 45.9024L197.88 41.3417H202.796L202.83 45.9024ZM197.101 42.0886L202.025 46.6493H197.101V42.0886ZM191.046 46.6493L195.962 42.0886V46.6493H191.046ZM190.232 41.3417H195.157L190.232 45.9024V41.3417ZM189.093 45.9024L184.143 41.3417H189.059L189.093 45.9024ZM183.364 42.0886L188.288 46.6493H183.329L183.364 42.0886ZM177.309 46.6493L182.225 42.0886V46.6493H177.309ZM176.495 41.3417H181.42L176.495 45.9024V41.3417ZM175.356 45.9024L170.397 41.3417H175.322L175.356 45.9024ZM169.627 42.0886L174.551 46.6493H169.627V42.0886ZM163.563 46.6493L168.488 42.0886V46.6493H163.563ZM162.758 41.3417H167.682L162.758 45.9024V41.3417ZM161.619 45.9024L156.66 41.3417H161.585L161.619 45.9024ZM155.89 42.0886L160.814 46.6493H155.89V42.0886ZM149.826 46.6493L154.75 42.0886V46.6493H149.826ZM148.987 41.3417H153.911L148.987 45.9024V41.3417ZM147.848 45.9024L142.923 41.3417H147.848V45.9024ZM142.118 42.0886L147.043 46.6493H142.118V42.0886ZM140.979 45.9024L136.055 41.3417H140.979V45.9024ZM135.25 42.0886L140.166 46.6493H135.25V42.0886ZM129.186 46.6493L134.111 42.0886V46.6493H129.186ZM128.381 45.9024V41.3417H133.297L128.381 45.9024Z" fill="#F4F6FA"/>
<path d="M177.198 50.0817H198.326L197.555 41.8343C197.462 40.753 196.934 39.7437 196.076 39.0075C195.217 38.2713 194.091 37.8621 192.922 37.8615H182.859C181.719 37.8622 180.62 38.2509 179.769 38.9539C178.918 39.657 178.375 40.6254 178.243 41.6754L177.198 50.0817Z" fill="#F4F6FA"/>
<path d="M190.858 45.0601H194.917V41.2939H190.858V45.0601Z" fill="#FAFBFF"/>
<path d="M185.728 45.0601H189.787V41.2939H185.728V45.0601Z" fill="#FAFBFF"/>
<path d="M180.606 45.0601H184.666V41.2939H180.606V45.0601Z" fill="#FAFBFF"/>
<path d="M184.666 22.5664C184.666 23.074 184.828 23.5702 185.132 23.9922C185.436 24.4143 185.868 24.7432 186.373 24.9375C186.879 25.1317 187.435 25.1825 187.972 25.0835C188.508 24.9845 189.001 24.74 189.388 24.3811C189.775 24.0222 190.038 23.5649 190.145 23.0671C190.252 22.5693 190.197 22.0532 189.988 21.5843C189.778 21.1153 189.424 20.7145 188.969 20.4325C188.514 20.1505 187.979 20 187.432 20C187.069 20 186.709 20.0664 186.373 20.1954C186.038 20.3243 185.733 20.5134 185.476 20.7517C185.219 20.99 185.015 21.2729 184.876 21.5843C184.737 21.8957 184.666 22.2294 184.666 22.5664Z" fill="#D8DAE5"/>
<path d="M120.742 69.9455C121.052 69.9466 121.36 69.8909 121.646 69.7815C121.933 69.6722 122.194 69.5114 122.413 69.3084C122.633 69.1054 122.807 68.8642 122.926 68.5985C123.045 68.3329 123.106 68.0481 123.106 67.7605V65.5676H118.379V67.7605C118.381 68.3408 118.631 68.8965 119.074 69.3061C119.517 69.7156 120.117 69.9456 120.742 69.9455Z" fill="#D8DAE5"/>
</g>
</g>
</svg>
