<svg width="94" height="97" viewBox="0 0 94 97" fill="none" xmlns="http://www.w3.org/2000/svg">
<g clip-path="url(#clip0_103_20442)">
<g clip-path="url(#clip1_103_20442)">
<rect x="-0.288452" width="94.2885" height="96.4153" rx="2.83574" fill="white"/>
<path d="M94 0H-0.288452V29.5402H94V0Z" fill="#C7B260"/>
<path d="M94 34.6007H-0.288452V96.4153H94V34.6007Z" fill="#DFC665"/>
<path d="M23.5263 74.1242L31.7348 55.9544C31.9546 55.4338 32.1628 55.0057 32.3595 54.6702C32.5678 54.3347 32.7818 54.0744 33.0016 53.8892C33.233 53.6926 33.4818 53.5595 33.7479 53.4901C34.0255 53.4091 34.3437 53.3686 34.7023 53.3686C35.0379 53.3686 35.3502 53.4207 35.6395 53.5248C35.9403 53.6289 36.2006 53.7909 36.4204 54.0107C36.6402 54.2305 36.8138 54.514 36.941 54.8611C37.0683 55.1966 37.1319 55.5957 37.1319 56.0585V76.7447C37.1319 77.1959 36.9815 77.5372 36.6807 77.7686C36.3799 78 36.0502 78.1157 35.6915 78.1157C35.3444 78.1157 35.0263 78.0057 34.737 77.7859C34.4478 77.5545 34.3032 77.2075 34.3032 76.7447V56.3709L25.3311 76.2067C25.146 76.6463 24.8799 76.9819 24.5328 77.2132C24.1973 77.4331 23.8386 77.543 23.4568 77.543C23.0866 77.543 22.7395 77.4388 22.4156 77.2306C22.0916 77.0108 21.8313 76.6695 21.6347 76.2067L12.6973 56.5097V76.7447C12.6973 77.1959 12.5469 77.5372 12.2461 77.7686C11.9452 78 11.6155 78.1157 11.2569 78.1157C10.9098 78.1157 10.5916 78.0057 10.3024 77.7859C10.0131 77.5545 9.86853 77.2075 9.86853 76.7447V56.0585C9.86853 55.5957 9.93216 55.1966 10.0594 54.8611C10.1867 54.514 10.3602 54.2305 10.5801 54.0107C10.7999 53.7909 11.0544 53.6289 11.3436 53.5248C11.6444 53.4207 11.9626 53.3686 12.2981 53.3686C12.6568 53.3686 12.9749 53.4091 13.2526 53.4901C13.5418 53.5595 13.8079 53.6926 14.0509 53.8892C14.2938 54.0859 14.5194 54.3578 14.7277 54.7049C14.9475 55.0404 15.1731 55.4685 15.4045 55.9891L23.4395 74.1242H23.5263Z" fill="white"/>
<path d="M60.9632 62.8266C60.9979 62.4217 61.1425 62.1267 61.3971 61.9416C61.6516 61.7565 61.9293 61.6639 62.2301 61.6639C62.4036 61.6639 62.5714 61.6928 62.7333 61.7507C62.8953 61.8085 63.0399 61.8953 63.1672 62.011C63.306 62.1151 63.4159 62.2482 63.4969 62.4101C63.5779 62.5605 63.6184 62.7399 63.6184 62.9481V63.0696C63.6184 63.1043 63.6126 63.139 63.601 63.1737C63.5432 63.7753 63.468 64.4753 63.3754 65.2736C63.2945 66.0603 63.1614 66.8817 62.9763 67.7379C62.7912 68.594 62.5482 69.4617 62.2474 70.341C61.9466 71.2087 61.5648 72.0301 61.1021 72.8053L63.8614 75.7902C63.9886 75.9406 64.0812 76.0968 64.139 76.2588C64.1969 76.4092 64.2258 76.5654 64.2258 76.7273C64.2258 76.924 64.1853 77.1149 64.1043 77.3C64.0233 77.4736 63.9134 77.6297 63.7746 77.7686C63.6473 77.9074 63.4911 78.0173 63.306 78.0983C63.1325 78.1793 62.9532 78.2198 62.7681 78.2198C62.5945 78.2198 62.421 78.1851 62.2474 78.1157C62.0739 78.0347 61.9061 77.9074 61.7442 77.7339L59.1584 74.8878C58.1056 76.0794 56.9428 76.9992 55.6702 77.6471C54.3976 78.295 52.9282 78.6189 51.2622 78.6189C49.9549 78.6189 48.717 78.4512 47.5484 78.1157C46.3915 77.7686 45.3792 77.2769 44.5115 76.6406C43.6438 75.9927 42.9554 75.2002 42.4463 74.263C41.9373 73.3259 41.6827 72.2615 41.6827 71.0699C41.6827 70.0865 41.8736 69.213 42.2554 68.4494C42.6372 67.6858 43.1289 66.9974 43.7305 66.3842C44.3437 65.7711 45.0321 65.2042 45.7957 64.6835C46.5593 64.1513 47.3228 63.6249 48.0864 63.1043C47.6699 62.6531 47.2534 62.1845 46.8369 61.6986C46.432 61.2127 46.0618 60.7094 45.7263 60.1888C45.4023 59.6566 45.1362 59.1071 44.928 58.5402C44.7313 57.9617 44.6329 57.3601 44.6329 56.7353C44.6329 55.9255 44.8065 55.2197 45.1536 54.6181C45.5007 54.0049 45.9576 53.5017 46.5246 53.1083C47.103 52.7149 47.7509 52.4199 48.4682 52.2232C49.1971 52.0266 49.9433 51.9282 50.7069 51.9282C51.4589 51.9282 52.1994 52.0208 52.9282 52.2059C53.6687 52.391 54.3281 52.6745 54.9066 53.0562C55.4967 53.438 55.971 53.924 56.3297 54.514C56.6883 55.104 56.8676 55.804 56.8676 56.6138C56.8676 57.3543 56.7346 58.0427 56.4685 58.679C56.2024 59.3153 55.8437 59.9111 55.3925 60.4665C54.9529 61.0102 54.4496 61.5251 53.8827 62.011C53.3158 62.4853 52.7373 62.9423 52.1473 63.382L59.2278 70.9137C59.4939 70.3468 59.7311 69.7278 59.9393 69.0568C60.1476 68.3742 60.3211 67.68 60.4599 66.9743C60.6103 66.2685 60.726 65.5628 60.807 64.8571C60.8996 64.1513 60.9516 63.4745 60.9632 62.8266ZM49.8739 64.9612C49.4458 65.2273 48.9368 65.5744 48.3467 66.0024C47.7683 66.419 47.2129 66.8875 46.6807 67.4081C46.1485 67.9172 45.6973 68.4552 45.3271 69.0221C44.9569 69.5774 44.7718 70.1154 44.7718 70.636C44.7718 71.5153 44.9453 72.302 45.2924 72.9962C45.6511 73.6788 46.1196 74.263 46.6981 74.7489C47.2881 75.2233 47.9649 75.5877 48.7285 75.8423C49.4921 76.0852 50.2846 76.2067 51.1061 76.2067C51.7771 76.2067 52.4018 76.1373 52.9803 75.9985C53.5703 75.848 54.1199 75.6456 54.6289 75.3911C55.1496 75.125 55.6471 74.8068 56.1214 74.4366C56.5957 74.0548 57.0643 73.6267 57.5271 73.1524L49.8739 64.9612ZM47.6699 56.77C47.6699 57.1981 47.7509 57.6377 47.9129 58.089C48.0864 58.5286 48.3062 58.9624 48.5723 59.3905C48.8384 59.8186 49.1335 60.2293 49.4574 60.6227C49.7813 61.0045 50.0937 61.3515 50.3945 61.6639C50.7648 61.3168 51.1523 60.964 51.5573 60.6053C51.9622 60.2467 52.3324 59.8706 52.6679 59.4773C53.015 59.0839 53.2985 58.6674 53.5183 58.2278C53.7497 57.7766 53.8654 57.2907 53.8654 56.77C53.8654 56.3535 53.7786 55.9891 53.605 55.6767C53.4315 55.3643 53.2001 55.104 52.9109 54.8958C52.6217 54.6875 52.2919 54.5371 51.9217 54.4446C51.563 54.3405 51.1928 54.2884 50.811 54.2884C50.4061 54.2884 50.0127 54.3347 49.6309 54.4272C49.2607 54.5198 48.9252 54.6644 48.6244 54.8611C48.3352 55.0578 48.1038 55.3123 47.9302 55.6247C47.7567 55.937 47.6699 56.3188 47.6699 56.77Z" fill="white"/>
<path d="M70.5641 78.1157C70.3674 78.1157 70.1765 78.0752 69.9914 77.9942C69.8179 77.9132 69.6559 77.8033 69.5055 77.6644C69.3667 77.5256 69.251 77.3694 69.1584 77.1959C69.0774 77.0108 69.0369 76.8199 69.0369 76.6232V54.8611C69.0369 54.676 69.0716 54.4966 69.1411 54.3231C69.2105 54.138 69.3088 53.976 69.4361 53.8372C69.5749 53.6983 69.7311 53.5884 69.9046 53.5075C70.0782 53.4149 70.2691 53.3686 70.4773 53.3686H83.4235C83.8516 53.3686 84.1698 53.5017 84.378 53.7678C84.5863 54.0223 84.6904 54.3057 84.6904 54.6181C84.6904 54.9421 84.5863 55.2371 84.378 55.5032C84.1698 55.7577 83.8516 55.885 83.4235 55.885H72.0739V64.1282H82.8682C83.3078 64.1282 83.6318 64.2612 83.84 64.5273C84.0483 64.7819 84.1524 65.0653 84.1524 65.3777C84.1524 65.6901 84.0425 65.9793 83.8227 66.2454C83.6144 66.4999 83.2963 66.6272 82.8682 66.6272H72.0739V75.5993H83.9094C84.3375 75.5993 84.6557 75.7324 84.8639 75.9985C85.0722 76.253 85.1763 76.5364 85.1763 76.8488C85.1763 77.1727 85.0722 77.4678 84.8639 77.7339C84.6557 77.9884 84.3375 78.1157 83.9094 78.1157H70.5641Z" fill="white"/>
<path d="M22.4517 14.382C21.9947 14.2081 21.5631 13.9709 21.1689 13.6769C20.8013 13.4022 20.4907 13.0549 20.2557 12.6555C20.0156 12.2291 19.8951 11.7429 19.9073 11.2507C19.8996 10.7355 20.0195 10.2267 20.2557 9.77196C20.4837 9.3391 20.7963 8.9592 21.1741 8.65607C21.5609 8.34694 21.9967 8.10848 22.4624 7.95101C22.9319 7.78752 23.4242 7.70377 23.92 7.70314C24.31 7.70217 24.6989 7.74446 25.0801 7.82916C25.4459 7.90969 25.8008 8.03512 26.1373 8.20288C26.4605 8.36422 26.761 8.56969 27.0305 8.8136C27.2974 9.05605 27.5229 9.34243 27.6979 9.66107C27.7343 9.71678 27.7578 9.78027 27.7668 9.84667C27.7759 9.91307 27.77 9.9807 27.7499 10.0445C27.7164 10.1608 27.6565 10.2673 27.575 10.3553C27.4708 10.4502 27.339 10.5075 27.1999 10.5182C27.0395 10.5348 26.8792 10.4855 26.7541 10.3813C26.4183 9.93232 25.9819 9.57309 25.4819 9.3339C24.9944 9.12669 24.4705 9.02454 23.9428 9.03397C23.6164 9.03284 23.2915 9.07898 22.9777 9.17094C22.666 9.2595 22.37 9.39812 22.1007 9.58168C21.8403 9.76017 21.62 9.99356 21.4545 10.2663C21.2844 10.5551 21.1974 10.8874 21.2036 11.2247C21.1928 11.5697 21.2978 11.9081 21.5011 12.1832C21.7089 12.4474 21.9653 12.6674 22.2555 12.8307C22.5718 13.0114 22.9073 13.1543 23.2553 13.2566C23.6175 13.3652 23.9628 13.4615 24.2912 13.5455C24.7976 13.7071 25.2919 13.8896 25.7743 14.0931C26.2324 14.2826 26.6637 14.5341 27.057 14.8407C27.4222 15.1264 27.7279 15.4844 27.9555 15.8936C28.1914 16.3422 28.3081 16.8464 28.2945 17.3559C28.3026 17.9291 28.1817 18.4966 27.9409 19.014C27.7108 19.5008 27.3859 19.9342 26.9863 20.2874C26.5755 20.6483 26.1024 20.9269 25.5914 21.1089C25.0559 21.3025 24.4919 21.4002 23.9241 21.3978C23.4487 21.3992 22.9755 21.3319 22.5185 21.1979C22.0821 21.0696 21.6631 20.8856 21.2715 20.6501C20.9027 20.4314 20.5672 20.1583 20.2757 19.8396C20.0036 19.5458 19.7831 19.2057 19.6243 18.8346C19.5752 18.7507 19.5455 18.6564 19.5374 18.5588C19.5293 18.4613 19.5431 18.3631 19.5777 18.2719C19.644 18.1269 19.7533 18.0071 19.89 17.9296C19.9553 17.8862 20.0292 17.8585 20.1064 17.8485C20.1836 17.8386 20.2621 17.8466 20.3359 17.8721C20.5116 17.9539 20.6625 18.0831 20.7724 18.2459C20.9053 18.5287 21.0859 18.7851 21.3063 19.003C21.5305 19.2292 21.7844 19.4223 22.0606 19.5767C22.3484 19.7375 22.6553 19.8595 22.9736 19.9396C23.3059 20.0242 23.6471 20.0665 23.9894 20.0655C24.3565 20.0648 24.7214 20.008 25.0721 19.8971C25.422 19.7896 25.7502 19.6185 26.0412 19.3919C26.3291 19.1669 26.5671 18.8818 26.7394 18.5553C26.9225 18.2006 27.0143 17.8037 27.0063 17.4024C27.0184 17.0475 26.9254 16.6971 26.7394 16.3975C26.5521 16.1186 26.3108 15.8823 26.0306 15.7033C25.7179 15.5013 25.3844 15.3355 25.0361 15.209C24.6668 15.0721 24.2939 14.9407 23.9174 14.8147C23.4202 14.7035 22.9305 14.5589 22.4517 14.382Z" fill="white"/>
<path d="M32.0162 20.6294C32.0178 20.7159 32.0016 20.8016 31.969 20.8813C31.9364 20.961 31.888 21.0329 31.8267 21.0922C31.7669 21.1535 31.6956 21.2018 31.6172 21.2342C31.5388 21.2667 31.4547 21.2827 31.3701 21.2812C31.2856 21.2827 31.2015 21.2668 31.1231 21.2343C31.0447 21.2018 30.9734 21.1535 30.9135 21.0922C30.8523 21.0329 30.8038 20.9611 30.7711 20.8814C30.7385 20.8017 30.7224 20.7159 30.724 20.6294V8.46288C30.7214 8.3755 30.737 8.28856 30.7697 8.20782C30.8023 8.12709 30.8514 8.05443 30.9135 7.99464C30.9741 7.93457 31.0456 7.8873 31.1239 7.85558C31.2023 7.82387 31.2859 7.80831 31.3701 7.80979C31.5402 7.80696 31.7044 7.87345 31.8267 7.99464C31.8888 8.05449 31.9378 8.1271 31.9705 8.20782C32.0031 8.28855 32.0188 8.37551 32.0162 8.46288V20.6294Z" fill="white"/>
<path d="M36.3867 10.473L35.3094 8.8943C35.2406 8.80159 35.1997 8.69018 35.192 8.5739C35.1811 8.45583 35.1972 8.33675 35.2387 8.22608C35.2794 8.12043 35.3444 8.02653 35.4282 7.95231C35.5145 7.87476 35.626 7.8332 35.7406 7.8359H35.7913C35.8615 7.85057 35.9304 7.87167 35.9969 7.89891H36.017C36.0282 7.91133 36.0425 7.92031 36.0584 7.9249C36.0742 7.92956 36.0885 7.93853 36.0998 7.95089L36.1412 7.97145C36.1622 7.9864 36.1811 8.00438 36.1972 8.02485C36.2146 8.04539 36.2332 8.06732 36.2533 8.08786L36.2839 8.13984L43.467 18.6333V8.47671C43.4657 8.38951 43.482 8.30295 43.5146 8.22241C43.5472 8.14187 43.5956 8.06901 43.6567 8.00839C43.7175 7.94493 43.7903 7.895 43.8706 7.86156C43.951 7.82812 44.0372 7.81192 44.1239 7.81401C44.2091 7.81134 44.2938 7.82728 44.3725 7.86081C44.4512 7.89433 44.522 7.94462 44.5803 8.00839C44.6389 8.07046 44.685 8.14381 44.7159 8.22416C44.7468 8.30451 44.762 8.39034 44.7605 8.47671V20.6323C44.763 20.7863 44.7103 20.9359 44.6124 21.0527C44.5168 21.1695 44.3839 21.2477 44.2373 21.2731C44.1969 21.2815 44.1556 21.2852 44.1144 21.2841C44.025 21.2863 43.9363 21.2696 43.8534 21.2353C43.7705 21.2009 43.6953 21.1495 43.6326 21.0842L43.5912 21.0212L43.5605 20.9897L36.388 10.4757V20.6323C36.3895 20.7187 36.3734 20.8045 36.3408 20.8842C36.3081 20.9639 36.2597 21.0357 36.1985 21.0951C36.1387 21.1564 36.0674 21.2047 35.989 21.2372C35.9105 21.2696 35.8265 21.2856 35.7419 21.2841C35.6574 21.2856 35.5733 21.2696 35.4949 21.2372C35.4164 21.2047 35.3453 21.1564 35.2855 21.0951C35.2242 21.0358 35.1755 20.964 35.1429 20.8843C35.1103 20.8046 35.0942 20.7187 35.0958 20.6323V8.48623C35.0943 8.39982 35.1104 8.31404 35.1431 8.23436C35.1757 8.15467 35.2243 8.0829 35.2855 8.02351C35.3453 7.9622 35.4164 7.91383 35.4949 7.88136C35.5733 7.8489 35.6574 7.83302 35.7419 7.83457H35.7926C35.8633 7.84724 35.9324 7.86832 35.9982 7.89749H36.0183C36.0295 7.90991 36.0438 7.91897 36.0597 7.92357C36.0755 7.92822 36.0898 7.93719 36.1011 7.94956C36.117 7.9505 36.1319 7.95791 36.1425 7.97011C36.2185 8.0283 36.2799 8.10435 36.3214 8.1919C36.3659 8.28327 36.3887 8.38409 36.388 8.48623L36.3867 10.473Z" fill="white"/>
<path d="M58.1404 10.2086C58.1408 10.2944 58.1248 10.3794 58.0931 10.4588C58.0615 10.5382 58.0151 10.6104 57.9563 10.6714C57.8308 10.7956 57.6635 10.8652 57.4891 10.8658C57.4061 10.8701 57.3233 10.8557 57.2463 10.8238C57.1693 10.7919 57.0998 10.7431 57.0431 10.6809C56.5302 10.1521 55.9199 9.73325 55.2477 9.4487C54.5994 9.17669 53.9056 9.03718 53.2052 9.03796C52.4878 9.03353 51.7773 9.18034 51.1175 9.46926C50.4795 9.74621 49.8994 10.1464 49.4088 10.6481C48.9186 11.1525 48.5284 11.7495 48.2595 12.4061C47.9771 13.0884 47.8341 13.8227 47.839 14.5639C47.8347 15.2857 47.9708 16.0013 48.2394 16.6684C48.5009 17.3216 48.8804 17.9181 49.3581 18.4265C49.8408 18.9368 50.4158 19.3461 51.0508 19.6313C51.7217 19.9334 52.4474 20.086 53.18 20.079C53.8737 20.088 54.5629 19.9631 55.2117 19.7107C55.8883 19.4398 56.5005 19.0234 57.0071 18.4894C57.1307 18.3657 57.2964 18.2961 57.469 18.295C57.5518 18.2914 57.6343 18.3048 57.7118 18.3347C57.7894 18.3646 57.8603 18.4103 57.9203 18.4689C57.9835 18.529 58.033 18.6025 58.0658 18.6844C58.0985 18.7662 58.1136 18.8542 58.1098 18.9426C58.1114 19.028 58.0965 19.113 58.0658 19.1924C58.0351 19.2719 57.9891 19.3443 57.9308 19.4054C57.3001 20.0661 56.5417 20.5842 55.7043 20.9266C54.9002 21.2507 54.0439 21.4165 53.18 21.4154C52.5834 21.4168 51.9894 21.3334 51.4152 21.1675C50.8587 21.0091 50.3241 20.7791 49.824 20.4829C49.3322 20.1889 48.8803 19.8299 48.4798 19.415C48.0777 18.9993 47.7295 18.5322 47.4439 18.0252C47.1536 17.5092 46.9293 16.957 46.7764 16.3822C46.6174 15.789 46.5379 15.1764 46.5401 14.5613C46.5398 13.9676 46.6155 13.3765 46.7657 12.8032C46.9126 12.2374 47.1284 11.6927 47.4079 11.1821C47.6868 10.6745 48.0262 10.2044 48.4183 9.78273C48.8135 9.35527 49.2624 8.98377 49.7532 8.67787C50.2569 8.36553 50.7988 8.12285 51.3645 7.95625C51.9636 7.78151 52.5839 7.69486 53.2067 7.69886C54.0713 7.69958 54.9272 7.875 55.7256 8.21507C56.5546 8.56728 57.3063 9.08638 57.9362 9.74169C57.9999 9.80079 58.051 9.87284 58.0861 9.95321C58.1213 10.0336 58.1397 10.1205 58.1404 10.2086Z" fill="white"/>
<path d="M68.6929 8.25215C69.4858 8.59772 70.2068 9.09599 70.8168 9.71994C71.4249 10.3449 71.9121 11.0821 72.2531 11.8928C72.6096 12.7328 72.7915 13.6398 72.7871 14.5559C72.7887 15.1728 72.7074 15.7869 72.5454 16.381C72.392 16.9556 72.1677 17.5078 71.878 18.0241C71.589 18.5316 71.2373 18.9987 70.8315 19.4137C70.4268 19.8299 69.9714 20.1907 69.4765 20.4872C68.9732 20.7844 68.4349 21.0145 67.8747 21.1717C67.2951 21.338 66.6957 21.4214 66.0938 21.4196C65.4924 21.4213 64.8937 21.3379 64.3145 21.1717C63.7543 21.0144 63.2159 20.7844 62.7125 20.4872C62.2198 20.1925 61.7677 19.8314 61.3683 19.4137C60.9674 18.9967 60.619 18.5299 60.3311 18.0241C60.0396 17.5087 59.8152 16.9563 59.6637 16.381C59.5049 15.7864 59.4254 15.1724 59.4274 14.5559C59.4252 13.9407 59.5047 13.328 59.6637 12.7348C59.8165 12.164 60.0409 11.6159 60.3311 11.1042C60.6183 10.5995 60.9668 10.1344 61.3683 9.71994C61.7696 9.30439 62.2214 8.94361 62.7125 8.64651C63.2145 8.34642 63.7533 8.1162 64.3145 7.96192C64.8943 7.79932 65.4927 7.7178 66.0938 7.71957C66.9866 7.71236 67.8713 7.89362 68.6929 8.25215ZM63.9927 9.48445C63.3559 9.76059 62.7774 10.1609 62.2893 10.6633C61.8038 11.1662 61.4157 11.759 61.1454 12.4103C60.8626 13.0886 60.7194 13.8195 60.7248 14.5572C60.719 15.3003 60.8622 16.0366 61.1454 16.7206C61.4147 17.374 61.8029 17.9688 62.2893 18.4732C62.7774 18.9755 63.3559 19.3758 63.9927 19.652C64.6595 19.9425 65.3775 20.0893 66.1019 20.0833C66.8229 20.0885 67.537 19.9417 68.2003 19.652C68.8382 19.3749 69.4183 18.9747 69.909 18.4732C70.3982 17.97 70.7885 17.3749 71.0585 16.7206C71.3417 16.0366 71.4847 15.3003 71.4789 14.5572C71.4843 13.8195 71.3412 13.0886 71.0585 12.4103C70.7875 11.7581 70.3973 11.1651 69.909 10.6633C69.4183 10.1618 68.8382 9.76161 68.2003 9.48445C67.537 9.1948 66.8229 9.048 66.1019 9.05315C65.3781 9.04695 64.6605 9.19324 63.994 9.48303L63.9927 9.48445Z" fill="white"/>
</g>
</g>
<defs>
<clipPath id="clip0_103_20442">
<rect width="94" height="96.3306" fill="white"/>
</clipPath>
<clipPath id="clip1_103_20442">
<rect x="-0.288452" width="94.2885" height="96.4153" rx="2.83574" fill="white"/>
</clipPath>
</defs>
</svg>
