<svg width="119" height="24" viewBox="0 0 119 24" fill="none" xmlns="http://www.w3.org/2000/svg">
<g clip-path="url(#clip0_1879_63066)">
<path d="M7.1314 23.9215L14.4144 16.6957L10.009 7.88721L0.0413818 7.91252L7.1314 23.9215Z" fill="#8F95B2"/>
<path d="M0 7.23341H22.9776L29.4738 0L5.92081 0.0641075L0 7.23341Z" fill="#8F95B2"/>
<path d="M38.1946 16.3633L30.4271 0.0194092L23.4666 7.69655L27.8217 16.3625L38.1946 16.3633Z" fill="#8F95B2"/>
<path d="M15.0154 17.0196L8.09802 23.9215H32.369L38.1947 17.0188L15.0154 17.0196Z" fill="#8F95B2"/>
<path d="M54.9254 8.4248C54.4089 8.07283 53.8512 7.77979 53.2637 7.55162C52.647 7.30781 52.0038 7.07413 51.343 6.85563C51.1204 6.79151 50.8681 6.71698 50.5861 6.63205C50.3033 6.54769 50.0125 6.44813 49.7227 6.33677C49.4265 6.22313 49.1387 6.09066 48.861 5.94026C48.5903 5.79448 48.3406 5.61554 48.1182 5.40793C47.9023 5.20544 47.7237 4.96958 47.5896 4.71024C47.4518 4.43246 47.387 4.1266 47.401 3.81935C47.3894 3.36091 47.519 2.90933 47.7737 2.52098C48.021 2.15772 48.3429 1.84653 48.72 1.60646C49.1023 1.36317 49.5234 1.18109 49.9667 1.06737C50.3814 0.9565 50.8094 0.898079 51.2399 0.893581C51.6035 0.893433 51.9664 0.923633 52.3245 0.983846C52.682 1.04417 53.0304 1.14675 53.3615 1.28925C53.7029 1.43685 54.0218 1.62815 54.3095 1.85787C54.6256 2.11384 54.9058 2.40789 55.1431 2.73272C55.2224 2.80855 55.3288 2.85262 55.4408 2.85591H55.4567C55.5555 2.85415 55.6508 2.81987 55.7263 2.75888C55.7958 2.70984 55.8459 2.63963 55.8682 2.55978C55.8824 2.51477 55.886 2.46732 55.8788 2.42081C55.8717 2.37429 55.8539 2.32984 55.8268 2.29066C55.6069 1.93087 55.3321 1.60444 55.0118 1.32215C54.6915 1.04159 54.3328 0.804059 53.9457 0.616039C53.5423 0.421891 53.1152 0.276764 52.6743 0.184073C52.204 0.0855741 51.7239 0.0366293 51.2425 0.0381189C50.6814 0.0425377 50.1242 0.127875 49.5896 0.291228C49.0413 0.45292 48.5243 0.69942 48.0592 1.02097C47.6021 1.33812 47.2187 1.7426 46.9332 2.20884C46.6385 2.70293 46.4884 3.26396 46.4988 3.83285C46.4828 4.38083 46.6413 4.92049 46.9534 5.38008C47.2571 5.80772 47.6436 6.17571 48.0918 6.46416C48.5565 6.76397 49.0562 7.0106 49.5808 7.19898C50.1095 7.39217 50.6258 7.555 51.1025 7.68324C51.6672 7.8739 52.2302 8.07469 52.7765 8.28054C53.2849 8.46941 53.771 8.7092 54.2267 8.99595C54.6292 9.24776 54.9762 9.57281 55.2479 9.95264C55.5118 10.3485 55.6459 10.811 55.6329 11.2805C55.6447 11.8425 55.5141 12.3989 55.2523 12.902C55.0095 13.3542 54.6692 13.7518 54.254 14.0688C53.8401 14.3813 53.3702 14.6188 52.8672 14.7698C52.3669 14.9238 51.8447 15.0029 51.3192 15.0044C50.8373 15.0045 50.3574 14.9458 49.891 14.8298C49.4375 14.7191 49.0005 14.5538 48.5905 14.3379C48.2008 14.1331 47.8446 13.8747 47.5332 13.571C47.2362 13.2846 46.9972 12.9479 46.8283 12.5781C46.646 12.3385 46.4415 12.2659 46.2204 12.3613C46.121 12.4031 46.0402 12.4772 45.9922 12.5705C45.9669 12.6297 45.9566 12.6937 45.9619 12.7575C45.9673 12.8212 45.9882 12.8829 46.023 12.9375C46.2133 13.3654 46.4818 13.7574 46.816 14.0949C47.1732 14.4597 47.5843 14.7724 48.0363 15.023C48.5146 15.2877 49.0259 15.4938 49.5579 15.6363C50.112 15.7866 50.6852 15.8624 51.261 15.8615C51.9261 15.8621 52.5867 15.7575 53.2161 15.5519C53.8313 15.3542 54.4027 15.049 54.9016 14.6517C55.3955 14.2545 55.7981 13.7636 56.0841 13.2099C56.3886 12.6109 56.5416 11.9517 56.5308 11.2856C56.5467 10.7038 56.3942 10.1292 56.0902 9.62531C55.79 9.15441 55.3938 8.74614 54.9254 8.4248Z" fill="#8F95B2"/>
<path d="M61.6613 0.172984C61.5462 0.171777 61.4353 0.214255 61.3529 0.291107C61.3099 0.329839 61.276 0.376848 61.2533 0.429054C61.2307 0.48126 61.2199 0.537457 61.2216 0.593957V15.2844C61.22 15.3407 61.2308 15.3968 61.2534 15.4488C61.2761 15.5009 61.31 15.5478 61.3529 15.5864C61.3936 15.6245 61.4419 15.6546 61.4948 15.6748C61.5477 15.6951 61.6043 15.7052 61.6613 15.7045C61.7803 15.7073 61.8956 15.6648 61.982 15.5864C62.0249 15.5478 62.0588 15.5009 62.0814 15.4488C62.1041 15.3968 62.1149 15.3407 62.1133 15.2844V0.593133C62.1149 0.53664 62.1041 0.480428 62.0814 0.42823C62.0588 0.376032 62.025 0.329022 61.982 0.290257C61.8954 0.212303 61.7801 0.170166 61.6613 0.172984Z" fill="#8F95B2"/>
<path d="M78.9145 0.173032C78.8542 0.171827 78.7942 0.18227 78.7382 0.203721C78.6822 0.225173 78.6313 0.257202 78.5885 0.2979C78.5455 0.337745 78.5116 0.385665 78.4889 0.438654C78.4661 0.491642 78.455 0.548547 78.4563 0.605822V13.9683L68.4438 0.35189C68.4059 0.318616 68.3649 0.288671 68.3213 0.262448L68.2632 0.230394C68.2476 0.217207 68.2276 0.209741 68.2068 0.209308C68.1634 0.194619 68.118 0.186376 68.072 0.18485C67.9555 0.183077 67.843 0.22553 67.7592 0.302947C67.7157 0.341426 67.6814 0.388373 67.6585 0.44061C67.6355 0.492848 67.6245 0.549175 67.6261 0.605822V15.2852C67.6245 15.3419 67.6355 15.3982 67.6585 15.4505C67.6814 15.5027 67.7157 15.5496 67.7592 15.5881C67.843 15.6655 67.9555 15.708 68.072 15.7062C68.1923 15.7091 68.309 15.6667 68.3971 15.5881C68.4405 15.5496 68.4749 15.5027 68.4979 15.4505C68.5208 15.3982 68.5318 15.3419 68.5301 15.2852V1.88478L78.5348 15.5282C78.5549 15.5599 78.5802 15.5884 78.6096 15.6126C78.6845 15.6708 78.7776 15.7032 78.874 15.7045H78.9127C79.0291 15.7058 79.1414 15.6634 79.2255 15.5864C79.269 15.5479 79.3033 15.501 79.3263 15.4488C79.3492 15.3965 79.3603 15.3402 79.3586 15.2836V0.604149C79.3601 0.547571 79.3498 0.491276 79.3283 0.438551C79.3068 0.385825 79.2746 0.337714 79.2335 0.297051C79.1922 0.25629 79.1425 0.224199 79.0876 0.202846C79.0327 0.181493 78.9738 0.171345 78.9145 0.173032Z" fill="#8F95B2"/>
<path d="M86.0107 4.40388C86.3343 3.88142 86.7247 3.39963 87.1729 2.96967C87.622 2.53872 88.1289 2.16679 88.6804 1.86365C89.676 1.31821 90.7876 0.995438 91.9319 0.919468C93.0763 0.843498 94.2237 1.01631 95.2885 1.42496C96.2222 1.78662 97.0706 2.32392 97.7836 3.0051C97.8248 3.04698 97.8745 3.08036 97.9297 3.10317C97.9848 3.12597 98.0443 3.13774 98.1044 3.13774C98.1644 3.13774 98.2239 3.12597 98.279 3.10317C98.3342 3.08036 98.3839 3.04698 98.4251 3.0051C98.4684 2.96791 98.5031 2.92241 98.5268 2.87153C98.5506 2.82065 98.5628 2.76554 98.5628 2.70982C98.5628 2.6541 98.5506 2.59901 98.5268 2.54813C98.5031 2.49726 98.4684 2.45175 98.4251 2.41456C97.6272 1.65396 96.6817 1.05011 95.6418 0.637009C94.6401 0.241912 93.5674 0.0381218 92.484 0.0371531C90.9542 0.0277602 89.4507 0.417719 88.135 1.16511C87.5178 1.51677 86.9519 1.94513 86.4521 2.43902C85.9597 2.92566 85.5334 3.46991 85.1834 4.05883C84.835 4.64702 84.5645 5.27445 84.3781 5.92665C83.9948 7.28071 83.9991 8.70856 84.3904 10.0605C84.5837 10.7212 84.8653 11.3553 85.2283 11.9469C85.5884 12.5327 86.0261 13.0715 86.5305 13.5498C87.0347 14.0292 87.6023 14.4433 88.2187 14.7815C88.8492 15.1256 89.5223 15.3926 90.2223 15.5762C90.9508 15.7675 91.703 15.8634 92.4584 15.8614C93.5375 15.8611 94.6074 15.6718 95.6153 15.3029C96.6617 14.9151 97.6106 14.3197 98.3995 13.5557C98.4834 13.476 98.5309 13.3677 98.5317 13.2546C98.5354 13.1977 98.5255 13.1409 98.5026 13.0883C98.4797 13.0358 98.4444 12.989 98.3995 12.9517C98.3593 12.913 98.3113 12.8825 98.2585 12.8621C98.2056 12.8416 98.149 12.8316 98.092 12.8327C98.0294 12.834 97.9676 12.8472 97.9104 12.8717C97.8532 12.8962 97.8017 12.9314 97.759 12.9753C97.0541 13.6522 96.2076 14.1786 95.2752 14.52C94.3735 14.8429 93.4185 15.0077 92.4558 15.0068C91.7672 15.0098 91.0815 14.9206 90.4187 14.7419C89.7903 14.5712 89.1872 14.3246 88.624 14.0079C86.9702 13.0768 85.7607 11.5651 85.2521 9.7939C85.0811 9.19664 84.9951 8.58 84.9966 7.96069C84.9956 7.32697 85.0846 6.69605 85.2609 6.08525C85.4318 5.49539 85.6839 4.92997 86.0107 4.40388Z" fill="#8F95B2"/>
<path d="M118.696 5.85156C118.498 5.19046 118.212 4.55646 117.845 3.96515C117.481 3.38098 117.038 2.8447 116.529 2.36983C114.944 0.884985 112.812 0.0570712 110.594 0.0649973C109.469 0.057815 108.353 0.268142 107.314 0.68339C106.324 1.07972 105.42 1.65226 104.653 2.37068C103.894 3.08716 103.288 3.93781 102.867 4.87545C102.438 5.84991 102.216 6.89696 102.216 7.95475C102.216 9.01254 102.438 10.0596 102.867 11.034C103.287 11.9756 103.894 12.8304 104.653 13.5515C106.236 15.0441 108.373 15.8753 110.594 15.8631C111.348 15.8653 112.098 15.7693 112.825 15.5779C113.524 15.3928 114.197 15.1258 114.828 14.7832C115.45 14.4441 116.022 14.028 116.529 13.5456C117.036 13.0658 117.478 12.5273 117.845 11.9427C118.213 11.3521 118.499 10.7179 118.696 10.0563C119.1 8.68139 119.1 7.22644 118.696 5.85156ZM118.079 7.95053C118.085 8.89721 117.884 9.83462 117.492 10.7033C117.112 11.5423 116.568 12.3037 115.888 12.9458C115.202 13.5885 114.395 14.1006 113.509 14.455C111.642 15.1927 109.545 15.1927 107.677 14.455C106.792 14.1002 105.985 13.5881 105.298 12.9458C104.619 12.3045 104.077 11.5429 103.702 10.7033C103.318 9.83409 103.121 8.90007 103.121 7.95645C103.121 7.01284 103.318 6.07879 103.702 5.20953C104.076 4.37133 104.619 3.61151 105.298 2.97303C105.986 2.33391 106.793 1.82398 107.677 1.46967C109.545 0.731934 111.642 0.731934 113.509 1.46967C114.394 1.82359 115.2 2.33356 115.888 2.97303C116.569 3.6122 117.113 4.37174 117.492 5.20953C117.884 6.0742 118.085 7.00762 118.081 7.95053H118.079Z" fill="#8F95B2"/>
<path d="M107.034 18.9694C107.067 18.97 107.099 18.964 107.13 18.952C107.16 18.9399 107.188 18.922 107.21 18.8994C107.256 18.8541 107.28 18.7934 107.279 18.7307C107.28 18.6994 107.274 18.6683 107.262 18.6393C107.249 18.6102 107.231 18.5839 107.208 18.5619C107.184 18.5401 107.157 18.5229 107.127 18.5115C107.096 18.5001 107.064 18.4946 107.031 18.4953H104.401C104.337 18.4939 104.274 18.5143 104.224 18.5527C104.196 18.5736 104.174 18.6005 104.158 18.6312C104.143 18.662 104.135 18.6958 104.136 18.7298V23.7453C104.136 23.8048 104.156 23.8628 104.194 23.9098C104.216 23.9353 104.242 23.9561 104.273 23.9707C104.303 23.9852 104.337 23.9932 104.371 23.9942H107.031C107.063 23.9946 107.096 23.9885 107.126 23.9763C107.157 23.9641 107.184 23.9461 107.207 23.9233C107.252 23.8776 107.276 23.8172 107.276 23.7546C107.276 23.7243 107.27 23.6942 107.258 23.6663C107.246 23.6383 107.228 23.6129 107.205 23.5918C107.182 23.5699 107.154 23.5528 107.124 23.5413C107.094 23.5299 107.061 23.5243 107.029 23.5251H104.64V21.4742H106.402C106.467 21.4759 106.53 21.4543 106.579 21.4135C106.603 21.3923 106.623 21.3663 106.636 21.3372C106.65 21.308 106.656 21.2765 106.655 21.2447C106.656 21.2132 106.649 21.1819 106.636 21.1529C106.623 21.1239 106.604 21.0977 106.58 21.076C106.532 21.0337 106.469 21.0107 106.404 21.0119H104.642V18.9686L107.034 18.9694Z" fill="#8F95B2"/>
<path d="M112.009 21.1493C112.153 21.0122 112.268 20.8494 112.347 20.6701C112.43 20.4792 112.471 20.2743 112.469 20.0677C112.471 19.8513 112.425 19.6369 112.336 19.4384C112.249 19.2498 112.122 19.0801 111.965 18.9398C111.804 18.7981 111.616 18.6873 111.412 18.6133C111.196 18.5349 110.967 18.4954 110.736 18.4969H109.261C109.197 18.4961 109.135 18.5194 109.09 18.5618C109.065 18.5833 109.046 18.6094 109.033 18.6385C109.02 18.6675 109.013 18.6989 109.014 18.7306V23.7629C109.013 23.7944 109.019 23.8257 109.032 23.8548C109.045 23.8839 109.064 23.9101 109.088 23.9316C109.136 23.972 109.198 23.9942 109.262 23.9942C109.326 23.9942 109.388 23.972 109.436 23.9316C109.46 23.9101 109.479 23.8839 109.492 23.8549C109.505 23.8258 109.511 23.7945 109.511 23.7629V21.626H110.48L111.994 23.8793C112.024 23.9271 112.07 23.9639 112.125 23.9839C112.153 23.9944 112.183 23.9998 112.213 24C112.243 24 112.273 23.9943 112.301 23.9831C112.335 23.9725 112.366 23.9547 112.392 23.9308C112.418 23.907 112.437 23.8778 112.449 23.8456C112.462 23.8113 112.466 23.7749 112.462 23.7388C112.458 23.7027 112.445 23.668 112.425 23.6372L111.045 21.6032C111.202 21.5801 111.355 21.5378 111.5 21.4775C111.689 21.3987 111.862 21.2875 112.009 21.1493ZM111.972 20.0593C111.973 20.2042 111.943 20.3478 111.884 20.4811C111.824 20.6124 111.739 20.7314 111.632 20.8312C111.52 20.9347 111.388 21.016 111.243 21.0708C111.084 21.1297 110.915 21.1583 110.744 21.1552H109.511V18.9617H110.731C110.903 18.9599 111.073 18.9885 111.233 19.0461C111.379 19.0979 111.512 19.1764 111.625 19.2773C111.734 19.3753 111.821 19.4935 111.881 19.6248C111.943 19.762 111.974 19.91 111.972 20.0593Z" fill="#8F95B2"/>
<path d="M117.223 18.9432C117.062 18.8018 116.875 18.691 116.67 18.6167C116.454 18.5386 116.225 18.4991 115.994 18.5003H114.519C114.453 18.4988 114.39 18.5222 114.343 18.5653C114.319 18.5868 114.299 18.613 114.286 18.642C114.274 18.6711 114.267 18.7024 114.268 18.734V23.7663C114.267 23.7979 114.274 23.8292 114.287 23.8583C114.299 23.8873 114.319 23.9135 114.343 23.9351C114.39 23.9765 114.452 23.9995 114.516 23.9995C114.58 23.9995 114.642 23.9765 114.689 23.9351C114.713 23.9136 114.732 23.8875 114.746 23.8584C114.759 23.8294 114.765 23.798 114.765 23.7663V21.626H115.989C116.22 21.6276 116.449 21.589 116.665 21.5121C116.869 21.4397 117.057 21.3303 117.218 21.1899C117.376 21.0512 117.502 20.8829 117.588 20.6955C117.679 20.498 117.725 20.2843 117.722 20.0687C117.725 19.8522 117.679 19.6377 117.588 19.4393C117.503 19.2521 117.378 19.0833 117.223 18.9432ZM117.23 20.0628C117.231 20.2077 117.201 20.3513 117.142 20.4846C117.082 20.6159 116.997 20.7348 116.89 20.8347C116.778 20.938 116.646 21.0194 116.502 21.0743C116.343 21.1329 116.174 21.1616 116.003 21.1586H114.77V18.9652H115.989C116.161 18.9633 116.331 18.9919 116.492 19.0495C116.637 19.1014 116.77 19.1799 116.884 19.2807C116.995 19.3805 117.083 19.5011 117.142 19.6352C117.202 19.7692 117.232 19.9136 117.231 20.0594L117.23 20.0628Z" fill="#8F95B2"/>
</g>
<defs>
<clipPath id="clip0_1879_63066">
<rect width="119" height="24" fill="white"/>
</clipPath>
</defs>
</svg>
